<svg xmlns="http://www.w3.org/2000/svg" width="60.931" height="125.65" viewBox="0 0 60.931 125.65"><g fill="#fff"><path d="M9.232 109.96c-.098.138.119.18.14.218.093-.263-.192-.238-.14-.218zM10.251 107.314l.044.089.057-.466zM11.828 105.172c-.442-.028-.541.805-.93 1.104l-.113.015.103.339c.311-.482.606-1.203.94-1.458zM13.331 104.592l-.243.221.064-.022.179-.199zM13.152 104.79c-.17.217.205-.061 0 0zM13.945 103.78l-.158.352c.113-.001.348-.227.31-.098.205-.32.093-.32-.152-.254zM13.991 103.348l-.092.176c.049-.003.092-.031.092-.176zM13.706 103.895l.194-.371c-.079 0-.168-.074-.097.163-.056-.096-.036.032-.097.208zM13.509 104.026c-.2.099-.412.269-.257-.091-.423.568-.171.648.257.091zM11.63 104.835l-.262.149-.053.269c.021-.138.411-.363.315-.418zM15.666 102.253c-.037-.07-.23-.055-.319-.104l-.131.256c.136-.063.357-.218.45-.152zM15.346 102.149l.197-.383c-.269.25-.272.341-.197.383zM13.746 103.028l-.257.68.343-.777zM16.789 101.164l-.046.288.115-.478zM17.521 100.421c-.024.226.339.017.27.208.189-.214.283-.47.367-.701-.128.204-.324.36-.637.493zM18.315 99.557c-.062.105-.107.233-.159.371.069-.11.125-.228.159-.371zM16.066 101.3c.055.011.184.054.386-.069l-.266-.041-.12.11zM16.177 101.188l.009.001.262-.234-.271.233zM16.036 101.327l.03-.027-.03.027zM14.627 102.379c.084-.255.352-.705-.125-.484-.018.225.253.099.125.484zM15.705 101.276l-.343.276c.046.034.16.036.117.163l.226-.439zM15.812 101.078l-.107.198.129-.1zM17.625 99.925c.076-.198.224-.346.386-.517-.214.141-.421.302-.602.471.021.073.024.235.216.046zM16.907 100.523l.022-.038-.022.038zM19.724 97.833l-.054-.004.018.033zM17.351 99.879c-.168.099-.212.217-.245.338.087-.113.185-.227.303-.338h-.058zM18.721 99.044l-.32.138c.117-.017.332-.074.32-.138zM17.015 100.484l-.014.026.014-.026zM17.015 100.484l.091-.268-.178.269.087-.001zM19.318 96.344c.109.169-.137.644-.601.779-.214.398.432.689.953.706-.049-.072-.103-.131.142-.514-.186.023-.889.472-.737.089.359-.468.398-.271.678-.384-.344-.019.302-.767-.037-.947l-.289.439c-.045-.034.03-.226-.109-.168zM19.04 98.379l-.116.141c.175-.114.337-.155.642-.225.156-.273.152-.37.123-.433l-.674.58.025-.063zM18.331 99.067c-.043-.253.211-.614-.141-.605-.377.37-.149.384-.317.667.588-.619-.098.254.436-.075-.098.141-.2.251-.298.354l.389-.227-.023.003-.002.003-.002-.003-.024-.015.01-.016-.028-.086c.211-.134.067.016.028.087l.014.03h.004l.546-.665c-.154.1-.316.258-.592.548zM14.493 101.246l.055.016c.02-.058.022-.085-.055-.016zM14.833 101.089c-.023.065.002.163-.156.29-.169.078-.072-.073-.129-.117-.046.127-.19.411.152.215l.022-.063c.295-.191.793-.312.771-.248-.205-.068-.364-.104-.66-.077zM16.554 100.005l.442-.565-.392.112.09.068c-.321.248-.163.287-.14.385zM19.856 97.856l.084.232.087-.515zM20.521 97.208l.109.17.1-.255zM39.086 49.552l-.041-.212.041.212zM38.921 51.046l.093.047c-.045-.075-.081-.108-.093-.047zM34.335 78.729c.304-.202.719-.398.5-.456l-.239-.004c-.061.211-.156.352-.261.46zM38.087 63.43l-.084.073.156.247-.072-.32zM37.259 63.024l.227-.358c-.068.077-.143.192-.227.358zM39.342 41.333l-.212-.25c-.012.378.105.216.212.25zM27.26 90.296c.235-.16.398-.309.525-.451-.303.18-.61.267-.525.451zM41.333 50.359c-.026-.132-.068-.192-.116-.192.029.136.06.214.116.192zM28.275 89.224l-.13.083c-.095.179-.197.354-.36.538.223-.133.443-.319.49-.621zM38.861 11.391l.022-.069-.022.069zM40.636 2.537l.031.358c.012-.065.006-.173-.031-.358zM23.335 94.705zM22.042 94.75l-.016-.131.016.131zM28.343 86.812l.01-.014-.01.014zM23.05 94.843l.229-.13-.229.13zM23.15 94.889l-.141.104c.007.043.039.045.141-.104zM23.525 94.501l-.247.212.056-.008.191-.204zM40.132 27.443l.019-.042c-.097-.196-.079-.11-.019.042zM34.228 73.128l.002.024.018-.023zM34.329 72.425c.146.368.054.515-.081.704l.67.002-.589-.706zM39.288 45.953l-.23.477c-.277-.612-.135-1.031-.442-.59l.602 2.023-.167.312-.012-.201c-.37.602.455.506.299 1.311-.073.279-.186.467-.251.267l.118.645c-.035.181-.146.125-.112-.055l-.059.96-.019-.009c.09.147.217.473.269.632-.125.232-.057-.13-.149-.077l.101.548c-.2.196-.318-.262-.25-.624-.732.419.118.458-.401 1.478l-.027-.508c-.42.276-.327.681-.631 1.212.14-.116.733-1.052.833-.459-.07.156-.119.365-.02.692-.24-.028-.216.282-.248.662l-.314-.068c.044.42.209.41.323.67-.08.452-.353.508-.575.584-.173.713.478-.441.392.422-.224.583-.166 1.023-.1 1.776-.18.403-.18-.106-.296.03l.188.416c-.022.09-.094.047-.13.026.044.332.311.08.312.591.324.198-.679.925-.39 1.612-.115.134-.18-.11-.31-.088.114.891.036.75.234 1.507l-.34.538c.334-.376.485.229.601.764.148-.127.278-.236.345-.313l-.012.811c-.073.082-.162-.021-.262-.178l.042.159c-.179.249-.325.063-.454-.173l.257-.232c-.146-.233-.314-.457-.506-.458.024.058.033.161.026.27-.04-.061-.079-.103-.115-.087-.039.019.012.114.062.257l-.388.093.128.074-.448.944c.162.791.599 1.565.379 2.723-.167-.348-.394-.173-.688-.271.419-.215.125-.899.312-1.471-.104.298-.231.193-.264.103l.023.561c.012.281-.003.555-.003.555-.238-.09-.25.168-.432.407.544-.068.088.856.107 1.318-.169-.022-.303-.171-.109-.669-.533.455.342.894-.133 1.357.034-.126.08-.186.013-.26.054.335-.276 1.014-.365.801l.035-.125c-.298.812-.771 2.511-.457 2.763-.055-.011-.442-.277-.504-.354l.78 1.939c-.292-.256-1.294-.08-1.228-.819-.123.174-.271.387-.308.836.099-.11.62-.136.581.056-.57.345-.336.264-.893.738.149-.166.596.266.457.571-.061-.081-.533-.189-.544-.324l.219.987c-.018-.233-.426-.219-.639-.109.126-.04-.251.667-.318.876l.268-.264c-.477.805.319 1.152-.118 1.983-.055-.152-.525-.553-.795-.161.167.313.826 1.463.653 2.321l-.217.069-.116.664c-.205-.566-.531-1.977-.589-2.663-.27.255-.217.002-.432.475-.219.096-.085-.357-.027-.498l-.618 1.037c.323.104-.106.984.161 1.075l.269-1.343c.324.101.515 1.119.079 1.875-.214.134-.455-.432-.562-.468.065.161-.175.834-.303.854l.032-.398c-.358.346-.017.886-.596 1.22-.122.16-.682.289-.527.418.498-.081 1.56.455 1.694.79-.06.05-.87.728-1.15.824-.428.125-.355-.797-.722-.689.073.058.075.271.067.354-.175.139-.198-.222-.398.188.25.245-.504.776.133.336-.149.434-.306.368-.564.823.267-.027.398.818.217 1.245-.057-.069-.208-.049-.279-.038-.559.735-.939 1.067-1.486 1.725-.114.011-.447.271-.454.042-.028.133-.008.293-.165.505-.542.209.326-.486-.188-.407.135.15-.203.703-.366 1.059.316.119.612-.62.739-.995.328.257.28 1.069-.189 1.875-.4.614-.412.056-.45.189-.947.966-.248 1.35-1.242 1.968-.501.137-.396-.359-.604-.423.329-.492.742-.53 1.008-.825l-.429.266c.063-.196.282-.523.485-.623-.43.105-1.596 1.614-2.503 2.167-.068.193-.229.483-.047.456l.208-.257c.367-.058-.232.649.135.43-.208.421-.409.929-.944 1.27l-.295-.144c.071.057.421-.146.484-.333-.096.276-.976.352-.909.838l.462-.144c-.216.42-.401 1.024-.871 1.329.39.053.07-.111.598-.117-.548-.09 1.048-.945.332-.913.574.023.626-.353 1.252-.461-.082-.062-.27-.012.103-.295l.013-.135.028-.016-.027.009-.01.004c-.111.044-.213.067-.279.051.01-.321.543-.836.636-1.098.23-.159-.001.164.182.135l.14-.391c.184.135.788-.253.415.3l.427-.406c.334-.158.701-.477.839-.756.229-.169.307-.682.267-.385l.27-.384.259-.396.047.03c.642-.671.965-1.658 1.928-2.25.151-.279.298-.571.642-.968l.216.029c.172-.369.86-.886.78-1.144.66-.079 1.096-1.583 1.536-2.129l-.204-.153c.261-.402.437-.832.656-1.389l-.213-.08c.092-.532.852-1.022 1.16-1.776.052.089-.059.263-.168.368.875-.635.567-1.996 1.281-2.615.022-.231.117-.36.235-.474l-.013.053.042-.079.241-.222-.221.179c.069-.153.156-.395.215-.643l.266.004.019-.055c.189-.185-.017-.225-.24-.182.019-.129.026-.252.012-.355l.631-.733c-.125-.236.315-1.229-.031-1.511.054.013.105-.046.06.08.146-.239.291-.479.27-.754l.328.002-.165-.712c.307-.274.465-.38.552.044-.019-.949.133-.717.066-1.535l.173.101c.09-.253-.001-.736.19-.84.531-.454.911-2.812 1.694-4.188l.042-.793c.154-.051.278-.241.337.033.046-.799.479-1.099.232-1.719.155-.055.158.212.256.153-.015-.068-.06-.272.039-.332.098-.059.086.139.116.275.16-.792-.235-.967-.611-1.114.275-.352.295-.556.106-.897.159-.108.346-.309.279.186.082-.267.573-1.626.266-1.718.099-.069.114-.375.084-.456.124-.613.162-.663.235-1.274l-.08.159c-.338-.31.001-.519.039-1.015l.037.021c.464-1.073-.049-.504.452-1.558l-.247.022c-.492-.183.467-.93.381-1.603l-.175.211c-.103-.372.826-.884.936-1.233.054-.071.057.132.077.245.412-.892-.297-.163-.288-.865.183-.106.408.221.495-.243.164-.218-.387-1.421.011-2.02-.146.126-.292.25-.352-.082.01-.496.65-1.283.288-1.769l.108-.08c-.078-.388-.085-1.244-.291-1.489.851-.285-.229-2.375.532-2.312l.045-1.165.075.035c.112-.741-.078-1.014-.247-1.284.058-.169.125-.041.164-.024.194-1.079.166-1.19-.182-2.114l.251-.085c-.135-.25.446-1.559.196-2.633.028.011.075.034.107.119-.267-1.202.711-2.864-.185-3.312l-.217-.791c-.077 1.021-.391-.154-.543.266-.05-.4.279-1.036.322-.543l-.046.077c.469.182.175-1.269.496-1.243-.037-2.01.177-3.974.17-5.86l-.362.226.007-.657c.079-.174.279-.239.277.23.201-.252-.199-.781-.279-.792.117-.921.438.346.438.064l-.037-.378-.039.087c-.16-.306-.319-.328-.32-.891.061-.358.219-.19.229-.331.026 0 .036-.048.003-.215l.004-.828-.278.34c-.155-.361-.011-.777-.325-.385.486-.578.077-3.089.209-3.438-.233-.503-.253-1.009-.256-1.637-.053.159-.373.266-.357-.275.678.167.246-1.002.707-1.462-.301.405-.148-1.533-.574-.898.034-.454.25-.04.391-.39-.313-1.059.049-2.371-.105-3.692-.089-.016-.212.212-.357-.065l.404-.722c-.056-.26-.519-.215-.238-.709-.07.071-.177.178-.214.004.304-2.614-.625-5.287.079-7.953-.156.363-.182.126-.2-.145-.035.179-.219.005-.336.045l.284-1.115c-.339-.188-.072-1.18-.393-1.284l.072.347c-.393-.451-.802.681-1.284.632.446.503-.57 1.4.073 2.23-.09.193-.161-.154-.268-.048.214.208.268.468.196.957l-.053-.052c.105 1.361-.06 1.953-.121 3.49l.231-.125c-.015.33-.086.403-.138.56.377.359-.025-.924.387-.6-.46.459.107 2.318-.425 2.64l.289.343-.141.142.197.118c-.015.333-.191.509-.316.528.011-.081-.046-.227-.062-.312-.153.438.121 1.208.071 1.358l.067-.49c.208 1.372.1 3.064.465 4.381l.107-.106c.252 1.007-.086.82.06 1.931l-.028-.039c.122.218.191.514.192.82-.143-.276-.23.542-.391.178.271 1.092.199.538.646 1.248l-.178.175c.179.241.268.258.341.814-.18-.451-.266.367-.5-.136-.356 1.185.471 1.721-.102 2.279.531.519.25-1.022.371-.726.159-.258.398.429.359.798.001.375-.634.659-.593 1.597l-.041-.192c-.119.355.2.683.002 1.121.318.232.001.56.399.619l-.121-.859c.118.485.604.931.396 1.743-.082-.061-.188-.297-.254-.46l-.028.698c-.393-.06-.108-1.045-.432-1.56-.159.257.32.981-.117.73.561.364-.051.926.378 1.552l-.238-.037c.039.1.155.306.152.491l-.313-.329c.271.509-.213.995-.062 1.485-.024-1.032.282-.237.448-.676.339 1.27-.608.743-.471 2.166-.037-.192.13-.726.246-.426-.044.272-.129.631-.251.799.065.943.242-.147.394.253-.286.324.131.463.22.877l-.241.004c-.162 1.076.501.284.307 1.254l-.332-.41.083.505-.272-.105c.2.549.146.721.065 1.258.171-.124.438.073.441.551-.146.324-.228-.184-.198.492-.15-.154-.338-.323-.114-.615l-.228-.183c-.167.348-.044.878-.043 1.123.009-.094.023-.207.058-.264l.327.984c-.091.152-.163.029-.234-.093.025.199.135.338.153.63-.195-.079-.398-.065-.487-.479l.207.935c-.087.061-.251.472-.319.349-.134.511.333 1.274.157 1.953.037.037.07.109.093.256-.068.641-.329 1.198-.089 1.972l-.367.414c.058.6.464-.562.56.438.068.708-.316.245-.431.485.151.357.467.987.134 1.612-.05-.217.014-.381.003-.581zm-.522 7.329c-.034-.148-.156-.448-.002-.534.255.193.109.302.002.534zm-1.376 11.103c-.054-.122.021-.272.152-.433-.011.136-.054.282-.152.433zm-12.638 28.634l.002-.02-.002.02zm-.549.409c-.024.071.002.092.047.096-.01-.076.095-.186.23-.295-.079-.011-.172.02-.277.199zm17.481-68.134l-.059.132c-.08-.29-.014-.21.059-.132zM37.354 63.075l.142-.031c-.027-.064-.072-.075-.142.031zM39.381 41.379l.004-.022-.043-.024.039.046zM28.927 84.062c.1-.097.176-.139.241-.157-.046-.038-.121-.011-.241.157zM21.913 96.202l.271-.343c-.144.152-.234.165-.336.209.045.036.16.038.065.134zM18.172 97.614l-.12.155.088.07c.192-.184.267-.375.032-.225zM21.076 95.884c-.163-.126-.313.106-.507.337l.039-.036c.127.268.298-.017.468-.301zM20.522 96.272l-.2.191c.052.108.099-.058.2-.191zM23.687 94.125c-.139.063.117.248.001.247.067.297.465-.897-.001-.247zM20.444 95.558l.249.111-.014-.262zM22.29 94.077l-.395.277c.034.025.007.085-.034.15.22-.195.489-.381.429-.427zM21.861 94.505c-.115.102-.218.205-.251.294.058-.059.182-.188.251-.294zM20.872 95.06l.138-.059.257-.218zM25.897 90.406l.291-.439c-.03-.096-.164-.023-.266.145-.037.132-.141.3-.025.294zM24.335 91.111c.134-.065.182-.034.296-.035l-.216-.223-.08.258zM25.289 89.949c-.03-.097.304-.721-.109-.221.03.095-.256.529.109.221zM30.07 83.819l-.065.115.447.245zM32.185 77.22c-.376.491.222.26-.157.688.046.179.31-.35.34-.175.046-.383.195-.526-.183-.513zM32.368 77.732l-.012.2.012-.2zM40.848 1.078l.09-.4-.161.261zM40.439.332l.32-.105-.303-.227c.018.089.053.261-.017.332zM37.99 54.281l.074.04c.091-.049.108-.139.142-.32l-.216.28zM38.806 49.03l-.013.091.305-.146zM38.76 44.553l-.001.579c-.025-.398.37-.608.001-.579z"/></g><g fill="#fff"><path d="M60.846 89.883c.153-.025.05-.213.063-.256-.239.116-.043.307-.063.256zM58.511 91.043l.02-.095-.301.304zM56.237 91.739c.322.257.79-.353 1.242-.334l.092.059.099-.326c-.489.174-1.066.558-1.433.601zM54.784 91.447l.296-.062-.062-.015-.234.077zM55.017 91.371c.234-.096-.195-.053 0 0zM53.946 91.848l.27-.23c-.094-.054-.38.031-.297-.062-.299.18-.204.232.027.292zM53.742 92.199l.143-.108c-.041-.022-.088-.017-.143.108zM54.189 91.862l-.305.229c.066.038.111.145.144-.095.01.109.041-.011.161-.134zM54.403 91.842c.202.009.444-.027.174.202.579-.263.407-.468-.174-.202zM56.242 92.13l.265.015.162-.186c-.082.093-.477.07-.427.171zM51.94 92.425c.01.078.18.142.239.222l.191-.179c-.134.002-.371.053-.43-.043zM52.179 92.646l-.286.268c.306-.117.337-.198.286-.268zM53.828 92.59l.467-.463-.574.506zM50.648 92.981l.121-.246-.234.394zM49.805 93.385c.082-.195-.295-.14-.183-.287-.223.126-.369.327-.5.508.164-.141.374-.215.683-.221zM48.892 93.886c.079-.073.151-.173.23-.28-.086.075-.165.162-.23.28zM51.307 93.131c-.044-.031-.141-.12-.35-.084l.216.139.134-.055zM51.181 93.189l-.008-.004-.289.114.297-.11zM51.341 93.116l-.034.015.034-.015zM52.858 92.738c-.159.183-.513.49-.052.482.087-.193-.182-.2.052-.482zM51.609 93.291l.374-.111c-.028-.049-.125-.097-.05-.194l-.324.305zM51.461 93.43l.148-.139-.139.041zM49.587 93.799c-.115.151-.28.232-.464.33.222-.052.441-.123.641-.212.001-.073.039-.222-.177-.118zM50.37 93.52l-.029.026.029-.026zM47.292 95.025l.045.021-.008-.037zM49.815 93.938c.17-.029.24-.117.3-.216-.105.069-.221.136-.351.194l.051.022zM48.416 94.217l.312-.021c-.11-.03-.308-.042-.312.021zM50.265 93.515l.019-.02-.019.02zM50.265 93.515l-.15.208.226-.177-.076-.031zM47.359 96.528c-.064-.189.241-.549.669-.527.263-.299-.237-.776-.69-.955.028.082.063.154-.225.431.168.036.867-.155.66.15-.404.318-.399.123-.665.141.296.127-.41.609-.146.883l.334-.312c.033.046-.069.198.063.189zM47.999 94.734l.13-.094c-.176.05-.325.037-.605.005-.192.206-.208.296-.194.363l.705-.325-.036.051zM48.761 94.323c-.021.245-.315.502-.01.606.405-.22.216-.298.427-.498-.66.349.146-.195-.401-.089.119-.092.236-.155.347-.214l-.396.066.021.006.003-.002v.003l.019.022-.013.01.003.09c-.215.052-.057-.04-.004-.089l-.006-.032-.003-.001-.62.439c.156-.042.328-.141.633-.317zM52.62 93.809l-.041-.036.041.036zM52.291 93.812c.038-.05.046-.147.215-.197.164-.001.039.096.073.158.074-.096.279-.292-.063-.256l-.037.049c-.301.051-.758-.042-.722-.09.155.143.28.239.534.336zM50.54 94.121l-.524.346.365.043-.061-.096c.34-.102.214-.196.22-.293zM47.18 94.962l-.027-.241-.179.45zM46.468 95.353l-.062-.191-.137.203zM9.377 121.403l-.14.131.14-.131zM10.56 120.806l-.017-.102c-.029.076-.032.124.017.102zM29.642 105.725c-.321-.004-.726-.074-.574.092l.189.133c.13-.137.26-.196.385-.225zM19.236 114.314l.101.014.037-.27-.138.256zM19.566 115.17l-.369.07c.092-.002.212-.022.369-.07zM1.431 125.201l-.501.449c.566-.238.386-.283.501-.449zM39.298 99.481c-.24.047-.414.112-.556.187.301-.038.588.005.556-.187zM8.788 119.131c-.08.082-.102.142-.076.184.083-.083.121-.147.076-.184zM38.178 100.015l.13-.02c.124-.118.252-.231.434-.327-.223.028-.452.102-.564.347zM.362 98.268l.026-.059-.026.059zM2.293 90.66l.03.312c.012-.057.007-.152-.03-.312zM43.545 96.797zM44.682 97.141l-.009.126.009-.126zM37.463 102.059l-.013.008.013-.008zM43.818 96.756l-.222.052.222-.052zM43.738 96.684l.142-.056c0-.042-.027-.053-.142.056zM43.343 96.925l.253-.117-.051-.011-.202.128zM.77 112.141l.021-.036c-.088-.171-.074-.096-.021.036zM27.276 110.077l.011-.019-.026.007zM26.865 110.555c.062-.37.202-.426.396-.489l-.52-.402.124.891zM6.547 122.854l.473-.014c-.336.521-.728.589-.244.658l1.257-1.445.32.003-.147.102c.645.047.155-.622.839-.849.247-.062.449-.052.333.095l.422-.393c.151-.06.17.062.02.122l.362-.223.358-.228.004.021c.056-.153.218-.43.301-.555.233-.018-.061.115.028.163l.331-.369c.251.062-.007.399-.303.533.705.386.259-.338 1.276-.444l-.347.289c.436.2.672-.09 1.231-.122-.167-.051-1.175-.045-.811-.438.15-.023.328-.094.501-.345.121.209.327.028.613-.145l.139.288c.272-.257.169-.378.279-.613.361-.181.557-.009.744.122.58-.289-.583-.113.042-.559.522-.171.779-.478 1.229-.972.378-.099.045.201.208.21l.153-.39c.073-.036.091.044.101.085.188-.229-.146-.285.185-.585-.084-.36 1.048-.023 1.29-.663.161.005.05.201.15.283.489-.624.438-.507.763-1.135l.552-.104c-.452.004-.193-.499.039-.926l-.42-.046.479-.511c.098-.001.1.129.079.301l.063-.132c.269-.032.264.19.214.435l-.314-.033c-.036.254-.052.521.079.659.018-.056.072-.128.142-.194l.028.14c.038.016.06-.083.109-.212l.325.216-.045-.14.876-.296c.337-.653.505-1.404 1.265-2.089-.063.357.192.385.353.65-.412-.119-.576.553-1.05.79.247-.124.278.032.249.114l.615-.77c.123.223.271.047.533-.002-.432-.313.396-.666.626-1.006.114.127.134.319-.276.545.638.027.223-.856.821-.871-.092.066-.158.079-.147.175.138-.27.74-.536.696-.33l-.091.067c.655-.377 1.895-1.292 1.748-1.706.037.041.208.479.219.575l.3-1.938c.108.368.976.828.577 1.352.177-.059.395-.134.634-.454-.131.026-.551-.263-.432-.385.609.076.386-.001 1.048-.034-.195.039-.352-.548-.103-.697.011.097.34.453.287.562l.276-.87c-.091.185.243.41.466.45-.124-.048.519-.343.646-.498l-.325.065c.718-.39.216-1.107.898-1.539-.015.151.204.727.582.554-.008-.346-.091-1.61.378-2.195l.206.06.351-.463c-.042.552-.325 1.842-.557 2.426.325-.062.179.113.548-.153.22.038-.074.332-.18.414l.933-.508c-.228-.253.482-.732.292-.941l-.758.931c-.228-.251.017-1.162.673-1.533.233.005.215.577.291.661.016-.15.467-.581.57-.552l-.164.327c.417-.128.318-.751.912-.765.155-.081.669.073.584-.107-.448-.167-1.151-1.124-1.152-1.468.065-.012.969-.192 1.239-.142.404.097.034.833.379.917-.042-.083.028-.264.063-.329.195-.034.092.278.401.029-.131-.321.689-.413-.001-.344.271-.292.383-.165.755-.424-.241-.106-.064-.853.21-1.146.027.085.161.133.224.153.68-.412 1.13-.496 1.762-.881.102.034.458-.067.406.137.059-.106.082-.256.271-.382.53.021-.409.304.063.431-.08-.184.359-.541.572-.816-.244-.209-.671.343-.883.617-.224-.358.029-1.031.592-1.604.473-.413.369.094.43-.014 1.023-.544.469-1.15 1.466-1.363.468.044.282.455.453.581-.386.335-.758.23-1.049.409l.43-.098c-.096.154-.352.378-.545.41.391.033 1.723-.926 2.605-1.173.094-.156.287-.373.122-.403l-.228.172c-.332-.062.318-.524-.043-.437.257-.32.515-.74 1.041-.896l.232.221c-.052-.073-.392.011-.478.167.128-.234.912-.034.945-.492l-.436-.018c.269-.309.543-.812 1.015-.942-.333-.17-.082.08-.55-.08.468.258-1.103.538-.463.732-.509-.21-.61.136-1.178.049.061.081.233.09-.14.243l-.034.122-.027.006h.034c.104-.009.197 0 .252.034-.062.301-.618.607-.747.817-.229.074.03-.149-.136-.181l-.191.314c-.138-.18-.734-.014-.311-.403l-.445.239c-.321.037-.704.195-.876.4-.233.075-.398.511-.307.257l-.604.53-.035-.044c-.68.383-1.172 1.154-2.145 1.274-.194.185-.388.385-.796.561l-.177-.12c-.246.24-.951.386-.963.635-.587-.242-1.431.794-1.978 1.038l.121.224c-.347.212-.64.479-.999.847l.15.17c-.257.396-1.013.49-1.569.893-.009-.097.148-.176.279-.201-.963.038-1.228 1.271-2.051 1.382-.106.172-.232.225-.371.251l.031-.036-.064.041-.279.047.246-.023c-.115.085-.277.23-.42.396l-.21-.148-.037.034c-.222.044-.073.188.121.275-.066.093-.12.188-.149.278-.358-.226-.384.422-.809.21-.003.248-.792.729-.645 1.143-.037-.041-.104-.028-.011-.096-.222.094-.444.188-.551.406l-.256-.196-.192.631c-.364.022-.532.006-.409-.363-.414.722-.425.456-.749 1.112l-.086-.181c-.184.135-.335.56-.541.502-.63-.02-2.113 1.38-3.396 1.81l-.442.525c-.14-.072-.333-.036-.224-.254-.479.483-.952.374-1.125.947-.14-.073.008-.247-.094-.278-.028.056-.111.215-.215.184-.102-.032.019-.149.074-.256-.558.385-.384.777-.208 1.139-.393.028-.523.143-.591.497-.172-.045-.414-.052-.083-.319-.211.112-1.325.622-1.174.905-.106-.028-.292.159-.326.225-.461.269-.511.278-.943.575l.152-.03c.026.434-.328.297-.666.554l-.01-.039c-.974.26-.29.329-1.272.549l.167.179c.188.489-.881.175-1.255.63l.241.015c-.172.309-1.076-.166-1.374-.085-.08-.008.055-.112.119-.186-.842.115.066.322-.415.669-.179-.095-.09-.442-.452-.279-.238-.026-.741 1.034-1.371 1.01.166.058.333.115.138.334-.35.24-1.221.119-1.372.648l-.115-.058c-.239.234-.856.613-.932.898-.629-.614-1.624 1.241-1.944.547l-.434.235c-.215.122-.442.217-.442.217l-.008-.081c-.6.196-.731.449-.864.703-.133 0-.085-.098-.089-.14-.563.069-.422.045-1.073.729l.073-.299c-.093.117-.237.072-.363.039.034-.304.106-.599-.05-.708l.109-.039c-.075-.062-.075-.226-.044-.379l.062-.222c.024-.069.051-.108.068-.273.074-.533.074-.979-.384-1.145l-.25-.664c-.034.876-.396-.113-.532.253-.067-.343.235-.901.299-.48l-.042.068c.477.136.122-1.091.443-1.078-.047-.855-.023-1.702.007-2.534.06-.835.151-1.658.168-2.465l-.368.186.028-.562c.087-.147.289-.197.269.204.21-.211-.165-.674-.245-.687.158-.785.422.31.435.068l-.023-.327-.043.073c-.146-.266-.305-.29-.28-.772.077-.306.228-.155.243-.275.026.001.039-.039.013-.185l.04-.708-.292.28c-.138-.315.023-.666-.308-.343.51-.475.214-2.644.374-2.937-.205-.443-.196-.881-.164-1.421-.062.134-.387.208-.342-.257.667.182.301-.849.788-1.219-.324.332-.062-1.328-.523-.805.059-.389.251-.021.413-.314-.248-.929.194-2.042.121-3.188-.088-.019-.225.174-.353-.072l.447-.605c-.041-.226-.505-.207-.195-.621-.075.059-.188.146-.213-.006.418-2.258-.517-4.58.211-6.911-.157.321-.183.114-.199-.122-.035.157-.217.011-.335.048l.291-.979c-.337-.151-.065-1.027-.384-1.102l.069.299c-.389-.372-.804.627-1.284.603.442.418-.579 1.216.058 1.908-.091.167-.16-.129-.267-.036.212.173.265.396.19.814l-.053-.045c.098 1.162-.084 1.67-.165 2.977l.233-.103c-.02.281-.092.342-.146.475.372.315-.013-.788.396-.504-.475.384.092 1.981-.48 2.241l.267.306-.149.115.189.109c-.035.285-.222.429-.348.439l-.042-.27c-.179.369.046 1.04-.012 1.167l.097-.417c.124 1.186-.089 2.631.198 3.78l.113-.086c.196.878-.131.699-.047 1.661l-.026-.035c.109.194.162.452.146.715-.128-.245-.26.452-.401.131.21.953.168.472.576 1.109l-.187.142c.165.218.253.237.295.72-.154-.398-.286.303-.491-.145-.418 1.007.391 1.509-.208 1.966.507.471.296-.872.402-.61.17-.216.379.389.323.705-.016.322-.663.541-.664 1.355l-.032-.168c-.135.304.17.598-.047.971.308.211-.024.484.371.547l-.082-.746c.098.424.556.821.323 1.516-.08-.054-.182-.262-.239-.404l-.05.604c-.396-.061-.075-.906-.371-1.361-.17.219.276.859-.15.63.541.329-.079.802.331 1.354l-.237-.036c.036.087.146.268.138.428l-.304-.29c.257.445-.24.861-.103 1.29.004-.897.289-.203.466-.583.301 1.104-.619.64-.465 1.887-.041-.169.116-.636.237-.373-.039.237-.118.553-.236.701.083.826.239-.132.399.217-.277.287.134.402.242.76l-.241.01c-.116.945.513.232.361 1.083l-.349-.345.104.438-.278-.08c.223.473.177.623.119 1.098.166-.117.44.041.465.455-.131.291-.236-.146-.177.44-.156-.124-.352-.26-.14-.528l-.235-.147c-.152.315-.006.772.005.986.006-.083.015-.182.047-.234l.058.131c.034.073.08.173.13.357l.192.607c-.081.231-.159.105-.237-.044.038.27.154.409.19.778-.196.009-.392.16-.509-.437l.27 1.261c-.079.146-.196.916-.273.803-.039.465.074.879.181 1.266l.077.296.009.038.048-.024.102-.057.198-.105c.259-.134.494-.234.705-.281.073-.071.192-.161.4-.278.414-.149.801-.233 1.239-.382.433-.146.922-.358 1.395-.701l.359.04.248.087c.456-.277-.653-.206.104-.667.526-.342.335.185.576.19.22-.272.549-.834 1.18-.826-.14.14-.295.158-.442.259zm5.69-3.091c-.085.104-.229.362-.378.281-.008-.311.152-.248.378-.281zm8.044-5.568c-.034.116-.176.16-.361.171.088-.08.204-.143.361-.171zm21.724-16.303l-.005.016.005-.016zm.557-.195c.034-.058.014-.085-.024-.102-.005.072-.116.14-.254.198.067.035.154.036.278-.096zm-40.146 12.644l-.064.111c-.067-.252-.005-.181.064-.111zM19.531 115.068l-.116-.081c-.019.06.005.1.116.081zM1.519 125.121l-.029.009-.059.071.088-.08zM36.068 104.1c-.118.035-.197.033-.258.02.027.052.099.065.258-.02zM45.05 95.842l-.304.225c.155-.093.238-.075.337-.082-.033-.047-.135-.087-.033-.143zM48.594 95.722l.134-.105-.062-.094c-.201.109-.303.262-.072.199zM45.732 96.395c.121.167.296.001.51-.149l-.041.021c-.063-.288-.267-.079-.469.128zM46.292 96.212l.212-.112c-.026-.116-.098.022-.212.112zM43.135 97.219c.134-.015-.059-.264.042-.227-.006-.293-.563.678-.042.227zM46.229 96.893l-.198-.181-.035.244zM44.352 97.693l.393-.142c-.026-.034.008-.081.055-.129-.225.118-.492.211-.448.271zM44.799 97.423c.117-.062.225-.128.269-.2-.061.038-.191.121-.269.2zM45.763 97.213l-.133.009-.266.117zM40.497 99.866l-.346.296c.005.098.137.078.262-.038.06-.107.185-.223.084-.258zM42.005 99.75c-.132.014-.166-.027-.267-.063l.146.274.121-.211zM40.93 100.49c.006.098-.425.551.047.238-.006-.096.339-.391-.047-.238zM35.021 103.765l.093-.066-.294-.416zM30.77 108.099c.507-.199-.073-.331.408-.477.035-.17-.394.119-.347-.039-.192.286-.372.322-.061.516zM30.832 107.583l.091-.156-.091.156zM2.513 89.377l.091-.354-.161.237zM2.109 88.746l.32-.109-.301-.182c.018.077.052.226-.019.291zM13.401 119.869l-.015-.08c-.089-.048-.164-.015-.312.053l.327.027zM9.127 121.879l.076-.029-.268-.197zM5.694 123.92l.462-.237c-.306.185-.65-.08-.462.237z"/></g></svg>