<svg xmlns="http://www.w3.org/2000/svg" viewBox="0 0 156.2 44.1" enable-background="new 0 0 156.2 44.1"><path fill="#1A1A1A" d="M5.4 31.6c0 5.8 2.2 7.7 9 7.7 2.5 0 6.5-.3 9.7-.9l.6 4.6c-3 .7-7.3 1.1-10.5 1.1-10.2 0-14.2-4.4-14.2-12.2v-18.3c0-7.9 4-12.2 14.2-12.2 3.1 0 7.5.4 10.5 1.1l-.6 4.6c-3.2-.6-7.2-.9-9.7-.9-6.8 0-9 1.9-9 7.7v17.7zM51.1 43.5h-4.4l-.3-2.2c-2.7 1.9-6.2 2.9-9.8 2.9-5.7 0-8-3.4-8-8.7 0-6.3 3.2-8.5 9.3-8.5h8.1v-4.7c0-3.8-1.7-5.1-6.6-5.1-2.9 0-6.7.5-9.1 1l-.6-4.2c2.9-.7 6.7-1.3 10-1.3 8.7 0 11.5 3.4 11.5 9.8v21zm-5.3-12.3h-7.7c-3.2 0-4.4 1-4.4 4 0 3.1.6 4.4 4.3 4.4 2.6 0 5.5-1 7.8-2.5v-5.9zM69.6 17.3c-2.9 1.4-6.2 3.5-8.7 5.2v20.9h-5.2v-30.3h4.5l.3 4.2c2.2-1.7 5.4-3.6 8.3-4.9l.8 4.9zM97.1 32.8c0 6.9-2.5 11.3-12.9 11.3-2.8 0-7.4-.4-10.8-1.2v-42.2l5.2-.7v14.6c2.1-1.1 5.7-2.1 9.6-2.1 6.3 0 8.9 3.7 8.9 9.5v10.8zm-18.5 6.3c2.1.3 4.1.4 6 .4 6.2 0 7.3-2.5 7.3-6.5v-11.2c0-3.1-1.4-4.7-4.9-4.7-2.7 0-6.3 1.3-8.3 2.3v19.7zM112.9 44.1c-8.8 0-12.3-5-12.3-11.4v-8.8c0-6.4 3.5-11.4 12.3-11.4s12.3 5 12.3 11.4v8.8c0 6.4-3.4 11.4-12.3 11.4zm0-27c-4.7 0-7.1 2.2-7.1 6.7v9.2c0 4.4 2.4 6.7 7.1 6.7 4.7 0 7.1-2.2 7.1-6.7v-9.2c0-4.5-2.4-6.7-7.1-6.7zM152.4 20.3c-3.8 0-6.8-3-7-6.8-3.5-.6-9 .9-11.6 2.2l-.5-2.6h-4.2v30.3h5.2v-22.8c3.2-1.7 7.9-3.1 10.2-3.1 1.9 0 2.9.8 2.9 2.8v23.2h5.2v-23.2h-.2z"/><circle fill="#1A1A1A" cx="152.4" cy="13.3" r="3.7"/></svg>