<svg xmlns="http://www.w3.org/2000/svg" width="313.705" height="257.512" viewBox="0 0 313.705 257.512"><g fill="#fff"><path d="M252.369 234.995c.515.116.377-.328.464-.391-.875-.042-.457.502-.464.391zM243.635 234.457l.187-.133-1.349.127zM235.694 232.451c.273.451.999.631 1.819.779.818.154 1.732.268 2.419.53l.196.211.777-.414c-1.756-.241-4.06-.578-5.211-1.106zM231.987 229.726l.929.405-.153-.117c-.168-.052-.395-.134-.776-.288zM232.762 230.014c.823.224-.462-.389 0 0zM228.98 228.859l1.146.139c-.169-.233-1.101-.599-.71-.588-1.133-.253-.967-.021-.436.449zM227.793 228.997l.59.095c-.074-.099-.212-.173-.59-.095zM229.629 229.293l-1.246-.201c.115.162.055.387.565.113-.166.165.135.055.681.088zM230.257 229.628c.548.356 1.294.721.141.579 2.08.624 1.931.04-.141-.579zM235.085 233.044l.767.439.778-.023c-.388.011-1.534-.646-1.545-.416zM222.543 226.016c-.122.114.2.518.206.729l.84.152c-.36-.257-1.078-.651-1.046-.881zM222.75 226.745l-1.261-.229c1.027.449 1.263.412 1.261.229zM227.333 229.675l2.13.165-2.509-.289zM218.159 224.146l.786-.029-1.363-.035zM215.248 222.893c.599-.048-.447-.744.133-.678-.803-.31-1.579-.379-2.274-.459.689.186 1.358.517 2.141 1.137zM211.966 221.555c.346.094.727.145 1.14.201-.364-.106-.736-.183-1.14-.201zM219.539 225.647c-.055-.118-.131-.414-.729-.8l.279.597.45.203zM219.098 225.464l-.01-.02-.963-.464.973.484zM219.653 225.695l-.114-.048c.027.056.048.081.114.048zM224.381 228.158c-.77-.055-2.3-.396-1.046.504.6-.073-.116-.587 1.046-.504zM220.012 226.417l1.201.591c.019-.114-.142-.356.243-.329l-1.444-.262zM219.353 226.297l.659.12-.445-.219zM213.854 222.9c-.604-.066-1.186-.314-1.834-.613.644.427 1.347.788 2.03 1.097.154-.078.555-.16-.196-.484zM216.386 224.18l-.127-.031c.058.065.111.102.127.031zM205.737 219.135l.064.122.057-.053zM214.133 223.509c.488.312.846.36 1.198.375-.408-.139-.835-.301-1.281-.5-.069.035-.093.068.083.125zM210.126 220.862c.229.214.499.433.787.654-.202-.251-.642-.706-.787-.654zM216.132 223.961l.086.019c-.133-.163-.13-.112-.086-.019zM216.132 223.961c-.294-.066-.549-.065-.801-.077.332.114.646.206.928.265l-.127-.188zM202.57 220.551c.278-.302 1.791.098 2.761 1.092 1.302.308 1.122-1.209.471-2.386-.116.134-.188.276-1.468-.143.306.414 2.37 1.832 1.212 1.629-1.649-.651-1.21-.807-1.867-1.396.413.781-2.315-.425-2.321.396l1.489.507c-.028.113-.609.006-.277.301zM208.031 220.431l.51.198c-.524-.338-.851-.677-1.439-1.315-.899-.225-1.125-.203-1.243-.109 0-.001.583.332 1.18.636l1.187.621-.195-.031zM210.728 221.716c-.569.198-1.825-.222-1.312.554 1.449.688 1.165.178 2.103.436-2.358-1.055.768.114-.794-.936.486.159.903.342 1.296.518-.393-.254-.765-.512-1.106-.771l.041.05.012.005-.006.005c.076.098.095.144-.004.06l-.052-.017-.176.095c-.629-.412-.056-.152.176-.095l.056-.043-.006-.01-2.414-.938c.46.297 1.079.591 2.186 1.087zM221.707 229.002l-.04-.123c-.176-.015-.249-.005.04.123zM220.812 228.36c.198.015.41-.085.962.186.445.32-.079.19-.107.333.388.033 1.316.198.32-.431l-.192-.015c-.915-.529-1.948-1.527-1.756-1.513.131.472.273.827.773 1.44zM215.594 225.179l-2.054-.699.846.793.043-.227c1.083.588.955.227 1.165.133zM205.619 218.828l.462-.268-1.393-.018zM203.128 217.558l.279-.301-.763-.138zM69.306 131.609l-.546-.356c.246.183.414.288.546.356zM72.696 134.795l.216-.068c-.232-.065-.351-.065-.216.068zM143.953 181.839c-.584-.81-1.15-1.849-1.293-1.412l.008.519c.586.281.979.588 1.285.893zM103.436 157.188l.137.271.748.05-.885-.321zM101.832 158.222l-.809-.97c.161.246.418.56.809.97zM51.093 113.852l-.836-.257c.799.866.613.334.836.257zM178.257 203.16c-.591-.566-1.094-.964-1.558-1.277.688.721 1.151 1.449 1.558 1.277zM73.77 129.48c-.337-.207-.518-.256-.576-.177.343.219.564.312.576.177zM174.737 200.662l.305.312c.535.247 1.066.509 1.658.909-.506-.533-1.138-1.06-1.963-1.221zM4.57 34.606l-.011-.216c-.062-.003-.038.087.011.216zM3.438 7.613c.048.255.12.672.179 1.067.006-.197-.055-.517-.179-1.067zM193.386 211.908c.527.279.106.007 0 0zM195.044 214.829c-.134-.021-.249-.014-.312.065.096-.066.201-.082.312-.065zM168.253 199.784l-.043-.028.043.028zM194.061 212.526c-.167-.156-.369-.319-.594-.491.089.094.267.247.594.491zM194.06 212.29l.43.292c.101-.025.067-.098-.43-.292zM192.661 211.506c.297.168.56.348.807.529-.086-.084-.115-.131-.081-.127l-.726-.402zM26.237 79.007l-.033-.132c-.47-.422-.306-.21.033.132zM128.427 177.179l.069.021-.065-.062-.004.041zM126.457 176.244c1.063.063 1.459.409 1.974.893l.101-1.439-2.075.546zM61.197 123.967l.812 1.343c-1.765-.833-2.562-1.925-1.926-.533l5.429 3.229.518.908-.478-.395c.951 1.83 1.73.288 3.421 2.146.567.672.878 1.233.333.943l1.652 1.086c.396.406.135.485-.26.08l1.122.976c.556.493 1.135.961 1.135.961l-.043.015c.459.125 1.396.521 1.838.729.432.647-.378-.146-.348.109l1.444.85c.265.709-.978.056-1.792-.739.24 2.033 1.245.654 3.191 3.458l-1.273-.908c.242 1.24 1.316 1.862 2.347 3.361-.166-.451-1.855-3.231-.294-2.3.307.413.784.875 1.692 1.298-.31.37.483.893 1.395 1.638l-.478.434c1.088.689 1.223.376 1.978.644 1.036.971.94 1.541.926 2.078 1.688 1.527-.702-1.604 1.451.013 1.301 1.388 2.494 2.031 4.478 3.168.881 1.011-.425.157-.175.6l1.226.348c.214.19.045.253-.042.286.897.458.465-.447 1.788.379.765-.293 1.852 2.781 3.852 3.344.259.437-.42.167-.459.452 2.388 1.219 2.021 1.079 4.161 1.837l1.206 1.449c-.782-1.202.934-.605 2.413-.064-.24-.475-.441-.885-.601-1.127l2.118 1.181c.171.256-.158.291-.632.267l.445.141c.55.699-.029.73-.74.65-.159-.276-.308-.562-.453-.841-.707-.05-1.409-.045-1.536.329.169.036.447.169.732.342-.188-.011-.323.004-.304.1.024.104.31.143.721.252l.009.902.277-.147 2.276 2.233c2.25.762 4.435 1.094 7.524 2.917-1.026-.09-.653.583-1.053 1.06-.409-1.106-2.431-1.373-3.842-2.596.74.631.395.743.135.681l3.038 1.456c-.356.368.351.718.935 1.392.05-1.194 2.397.893 3.671 1.424-.125.324-.586.417-1.878-.605 1.042 1.674 2.584.402 3.682 1.935-.334-.221-.483-.387-.711-.337.941.288 2.69 1.787 2.081 1.721l-.333-.222c2.112 1.634 6.694 4.589 7.502 4.096-.039.106-.861.656-1.091.709l5.532.26c-.752.378-.369 2.715-2.441 1.842.468.442 1.063.968 2.325 1.486-.306-.324-.323-1.473.208-1.205.912 1.567.704.979 2.001 2.654-.458-.486.771-1.052 1.607-.461-.227.056-.543.995-.922.891l2.75.443c-.646-.171-.611.741-.3 1.315-.105-.328 1.852 1.202 2.486 1.474l-.773-.801c2.344 1.687 3.241.2 5.627 1.762-.416.016-1.485.762-.322 1.65.875-.136 3.964-.802 6.323.141l.24.536 1.856.672c-1.492.141-5.299-.082-7.255-.462.782.792.053.489 1.445 1.318.326.565-.995-.066-1.41-.303l3.108 2.163c.203-.655 2.804.892 2.97.34l-1.925-.744-1.922-.772c.207-.651 2.993-.388 5.217 1.062.441.575-1.052.766-1.12.985.415-.021 2.39.914 2.514 1.179l-1.151-.27c1.136.973 2.534.471 3.707 1.952.5.357 1.104 1.694 1.402 1.411-.448-1.176.623-3.304 1.494-3.444.157.157 2.364 2.314 2.76 3.003.541 1.043-2.046.422-1.587 1.313.128-.137.723-.039.958.023.463.475-.526.343.704 1.013.558-.455 2.382 1.557.865-.139 1.264.56 1.159.89 2.537 1.715-.2-.644 2.021-.507 3.286.058-.16.104-.02.459.053.625 2.346 1.543 3.456 2.608 5.674 4 .118.268 1.085 1.104.473 1.069.384.097.8.083 1.495.496 1.016 1.326-1.579-.874-.94.357.296-.282 2.063.64 3.17 1.037.022-.707-2.194-1.504-3.304-1.903.442-.718 2.611-.409 5.137.702 1.958.961.516.957.899 1.053 3.407 2.251 3.73.556 6.306 2.831.877 1.145-.499.948-.442 1.432-1.626-.732-2.146-1.704-3.184-2.307l1.129.987c-.573-.141-1.653-.642-2.122-1.109.356.499 1.816 1.419 3.496 2.464 1.693 1.023 3.606 2.172 4.851 3.167.573.131 1.499.461 1.214.041l-.896-.442c-.568-.841 1.915.437.933-.38 1.301.422 2.847.722 4.354 1.865l.005.708c.053-.177-.888-.923-1.438-1.021.812.148 2.098 2.144 3.236 1.866l-.937-1.02c1.312.398 3.063.635 4.436 1.572-.375-.888-.37-.12-1.066-1.296.46 1.282-3.677-2.1-2.699-.489-.648-1.312-1.65-1.336-2.675-2.723-.059.199.294.611-.866-.16-.084.021-.25.013-.354.004l-.075-.06.056.059.021.021c.244.239.424.464.463.616-.839.073-2.742-1.069-3.508-1.247-.664-.505.415-.023.136-.439l-1.147-.262c.132-.443-1.511-1.761.3-.995l-1.498-.91c-.761-.736-1.925-1.553-2.77-1.854-.655-.514-2.043-.664-1.244-.589l-2.496-1.197.037-.108c-2.289-1.46-5.153-2.322-7.368-4.647-.838-.391-1.715-.777-2.948-1.701l-.048-.488c-1.07-.511-2.791-2.209-3.436-2.135-.528-1.56-4.736-3.234-6.409-4.483l-.334.39c-1.205-.774-2.451-1.371-4.071-2.129l-.141.44c-1.49-.499-3.201-2.307-5.302-3.512.229-.062.733.291 1.053.603-1.979-2.338-5.583-2.522-7.408-4.526-.637-.203-1.007-.498-1.333-.834l.148.065-.223-.146-.638-.679c.171.239.346.449.515.604-.431-.252-1.1-.616-1.789-.921l-.011-.577-.152-.081c-.522-.542-.618-.122-.482.394-.359-.135-.7-.239-.988-.284-.084-.976-1.792-.83-2.03-1.964-.648.08-3.315-1.771-4.109-1.28.039-.106-.116-.271.225-.057-.644-.536-1.286-1.071-2.042-1.279l.04-.705-1.973-.306c-.72-.914-.977-1.352.196-1.14-2.6-.862-1.932-.966-4.2-1.622l.312-.268c-.675-.436-2.04-.713-2.259-1.255-1.064-1.629-7.292-5.108-10.621-8.386l-2.116-1.043c-.057-.379-.489-.878.259-.639-2.068-1.156-2.587-2.443-4.349-2.789-.052-.383.646-.026.55-.3-.187-.064-.743-.251-.842-.528-.095-.273.415.019.785.143-1.957-1.387-2.662-.851-3.28-.316-.757-1.023-1.261-1.362-2.28-1.477-.181-.466-.578-1.112.667-.28-.646-.541-3.847-3.419-4.306-2.966-.11-.288-.906-.748-1.122-.832-1.456-1.201-1.55-1.35-3.04-2.453l.338.401c-1.053.149-1.315-.822-2.544-1.678l.083-.035c-2.323-2.576-1.319-.726-3.532-3.356l-.163.487c-.897.591-1.934-2.364-3.684-3.323l.363.668c-1.046-.425-1.369-3.019-2.097-3.811-.119-.221.374.131.665.292-1.734-2.287-.685.241-2.37-1.011-.071-.508.941-.329-.086-1.292-.365-.642-3.785-1.877-4.789-3.642.141.477.281.951-.576.448-1.184-.919-2.335-3.418-3.864-3.745-.09-.182-.096-.28-.057-.333-.976-.622-2.945-2.271-3.755-2.418.368-1.9-5.635-4.382-4.553-5.448l-1.278-1.198-1.248-1.229.175-.043c-1.485-1.677-2.298-1.989-3.112-2.302-.286-.444.081-.271.168-.296-2.069-2.551-2.283-2.783-4.716-4.277l.172-.545c-.358-.177-1.016-1.179-1.906-2.381-.874-1.217-1.948-2.661-3.221-3.678.063-.013.179-.026.399.12-2.862-2.315-4.459-7.487-6.714-7.36l-.928-.783-.904-.804c1.783 2.525-.901.125-.356 1.314-.826-.903-1.487-2.833-.504-1.704l.071.241c1.075-.145-2.071-3.25-1.511-3.571l-1.373-1.802-1.272-1.855-2.449-3.713c-1.582-2.48-3.016-4.993-4.578-7.35l-.254.938s-.274-.413-.521-.841l-.499-.855c-.127-.534.122-.897.831.319-.035-.852-1.527-1.83-1.685-1.782-1.189-2.509 1.289.472.861-.261l-.645-.949.062.266c-.741-.637-1.055-.544-1.91-2.009-.434-.989.101-.699-.095-1.073.05-.026-.017-.152-.308-.568l-1.16-2.198-.016 1.154c-.787-.822-1.119-2.059-1.126-.733.039-.994-1.061-3.039-2.093-5.027-1.012-1.999-2.066-3.886-2.16-4.417-1.103-1.179-1.72-2.582-2.457-4.325.086.478-.385 1.009-.994-.515 1.482-.017-.746-2.951-.342-4.552-.148 1.34-1.878-4.224-2.027-2.172-.41-1.303.434-.265.34-1.338-.423-.7-.783-1.472-1.109-2.291-.318-.822-.55-1.71-.808-2.613-.489-1.816-1.026-3.709-1.709-5.58-.186-.007-.249.717-.745-.024l.234-2.281c-.308-.726-1.181-.403-1.009-1.955-.084.235-.21.59-.417.098-.396-1.926-.794-3.862-1.268-5.795-.466-1.933-1.068-3.848-1.449-5.819-.417-1.962-.845-3.93-1.104-5.919-.191-2-.272-4.01-.154-6.018-.193 1.104-.328.402-.457-.408-.005.538-.433.041-.655.174l.029-.528c.01-.316.045-.739.096-1.163l.179-1.69c-.713-.538-.367-3.542-1.029-3.838l.209 1.042c-.872-1.345-1.474 2.104-2.446 1.997.495.755.277 1.83.118 3.04-.144 1.205-.146 2.537.632 3.754-.111.601-.376-.447-.552-.11.501.604.699 1.384.729 2.888l-.125-.151c.31 2.072.581 3.541.747 5.1.2 1.552.281 3.199.696 5.525l.378-.444c.181.996.088 1.237.086 1.725.978.961-.644-2.77.383-1.918-.601 1.516 1.659 6.919.896 8.068l.838.907-.167.478.48.27c.232.994.025 1.595-.204 1.705-.043-.247-.27-.657-.368-.906.048 1.375 1.191 3.555 1.214 4.024l-.258-1.493c.721 2.008 1.519 4.229 2.311 6.438.751 2.223 1.701 4.353 2.75 6.141l.091-.372c.778 1.372.955 1.974 1.122 2.625.157.655.325 1.349 1.136 2.868l-.101-.092c.489.535.972 1.322 1.338 2.186-.598-.68.216 1.699-.519.785 1.829 2.895.978 1.402 2.734 3.034l-.099.623c.646.53.833.508 1.692 1.985-.919-1.105-.007 1.231-1.096.02.459 1.787 1.237 2.896 1.888 3.785.673.879 1.184 1.563 1.069 2.571 1.705.942-1.022-2.989-.377-2.288-.082-.832 1.339.819 1.797 1.847.544 1.002-.208 2.351 1.257 4.852l-.365-.476c.331 1.064 1.409 1.629 1.736 2.983.918.311.871 1.49 1.655 1.256l-1.539-2.162c.966 1.175 2.474 1.886 3.395 4.217-.249-.068-.799-.588-1.166-.955.177.743.854 1.104 1.075 1.853-.815.269-1.855-2.633-3.211-3.69.123.841 2.081 2.299.93 2.063 1.512.423 1.408 2.491 3.195 3.666l-.468.153c.234.218.776.629 1.082 1.111l-1.084-.521c1.319 1.028 1.307 2.816 2.406 3.916-1.797-2.64.07-.917-.394-2.232 2.706 2.898.264 2.561 2.997 6.036-.402-.448-1.072-1.989-.35-1.357.408.738.905 1.746 1.004 2.312 1.78 2.317.133-.653 1.091.185.105 1.156 1.036 1.014 1.958 1.914l-.38.297c1.773 2.821 1.335.089 2.852 2.682l-1.296-.591 1.084 1.13-.623.08c1.353 1.097 1.582 1.585 2.522 2.961.021-.512.82-.38 1.759.744.411.955-.71-.144.661 1.423-.53-.171-1.151-.332-1.38-1.314l-.71-.145c.428 1.044 1.663 2.151 2.144 2.733-.17-.237-.37-.522-.43-.704l2.431 1.905c.173.475-.187.286-.538.094.439.431.887.605 1.507 1.257-.451.079-.721.384-1.699-.46l2.221 1.894c-.003.256.617 1.423.262 1.236.876 1.365 3.133 2.465 4.356 4.208.13.03.333.144.68.437 1.291 1.51 2.095 3.179 4.138 4.489l.424 1.446c1.4 1.215-.621-1.912 1.707.107 1.672 1.402.135 1.001.526 1.686 1.001.538 2.825 1.367 3.857 3.158-.566-.37-.863-.807-1.341-1.202zm16.802 15.283c-.394-.217-1.255-.567-1.306-.995.739-.08.852.376 1.306.995zm27.546 20.668c-.357-.064-.716-.428-1.064-.911.356.213.721.505 1.064.911zm82.027 49.005l-.052-.003c-.735-.661-.479-.417.052.003zm1.627 1.206c.209.046.231-.019.191-.12-.183.033-.577-.19-1.003-.482.059.181.238.388.812.602zm-163.521-138.253l.095.397c-.581-.682-.335-.54-.095-.397zM102.027 158.109c-.049-.14-.022-.232.009-.322-.185-.04-.245.032-.009.322zM51.248 113.899l-.042-.055-.112.007.154.048zM160.402 197.122c-.316-.279-.469-.474-.552-.633-.082.089.027.271.552.633zM198.836 214.755l-1.181-.524c.553.286.694.487.931.709.031-.113-.103-.377.25-.185zM207.322 222.647l.558.203.054-.224c-.729-.345-1.316-.436-.612.021zM199.095 216.745c-.11.41.671.675 1.505 1.034l-.141-.075c.508-.377-.435-.653-1.364-.959zM200.792 217.866c.255.115.512.24.742.386.202-.15-.276-.201-.742-.386zM191.535 211.199c.316.309.494-.311.619-.044.674-.202-2.776-.917-.619.044zM199.092 218.27l-.045-.592-.638.102zM193.031 214.422l1.193.835c.022-.083.207-.035.423.044-.77-.455-1.571-1.025-1.616-.879zM194.647 215.301c.399.237.79.446 1.056.503-.222-.119-.702-.372-1.056-.503zM197.289 217.43l-.324-.303-.874-.537zM179.71 206.312l-1.42-.714c-.228.061.084.378.62.631.386.099.92.353.8.083zM183.083 209.982c-.312-.312-.278-.423-.398-.689l-.365.505.763.184zM179.059 207.694c-.225.062-2.215-.796-.487.233.224-.057 1.656.649.487-.233zM159.215 194.392l.347.204.485-.897zM139.969 185.458c1.463 1.217.708-.287 1.992.877.501.032-1.05-.95-.553-.886-1.094-.395-1.522-.838-1.439.009zM141.408 185.449c.175.062.362.127.573.179-.314-.12-.469-.164-.573-.179zM3.588 3.216l.103-1.2-.271.791zM2.627.998l.622-.325-.651-.673c.053.267.157.784.029.998zM79.703 142.441l.172-.059c-.033-.25-.241-.445-.657-.837l.485.896zM67.752 131.025l.198.204.015-.79zM57.33 121.819l1.315 1.239c-.937-.815-.897-1.86-1.315-1.239z"/></g><g fill="#fff"><path d="M238.06 200.771c-.025-.285-.415-.11-.499-.139.195.456.604.105.499.139zM240.17 205l-.186-.021.31.248.317.239-.441-.466zM241.807 208.91c.49-.674-.79-1.318-.812-2.14l.104-.177-.656-.104c.396.85 1.272 1.752 1.364 2.421zM241.504 211.657l-.187-.519-.014.12c.05.082.112.195.201.399zM241.304 211.259c-.24-.395-.059.376 0 0zM242.498 213.017l-.533-.383c-.074.19.182.667-.026.56.447.456.516.259.559-.177zM243.243 213.222l-.253-.205c-.031.081-.007.164.253.205zM242.451 212.576l.539.44c.052-.134.245-.262-.229-.213.209-.064-.033-.067-.31-.227zM242.353 212.201c-.03-.374-.152-.798.35-.399-.633-.944-.995-.559-.35.399zM242.562 208.779l.004-.481-.375-.234c.186.117.182.837.371.715zM244.267 216.337c.145-.059.212-.4.345-.55l-.396-.258c.044.244.216.652.051.808zM244.612 215.787l.591.382c-.314-.494-.476-.509-.591-.382zM243.97 212.889l-1.036-.616 1.15.785zM245.779 218.364l-.508-.078.829.195zM246.88 219.62c-.403-.022-.129.605-.457.499.337.312.781.444 1.178.56-.336-.198-.571-.52-.721-1.059zM248.228 220.903c-.173-.093-.391-.154-.627-.225.179.105.378.187.627.225zM245.81 217.102c-.042.096-.173.318-.025.671l.179-.465-.154-.206zM245.969 217.292l-.006.016.323.45-.317-.466zM245.772 217.05l.038.052-.038-.052zM244.571 214.523c.419.179 1.08.668.941-.158-.397-.054-.314.421-.941.158zM246.001 216.478l-.169-.301-.159-.31c-.084.077-.144.277-.35.192l.335.214.343.205zM246.317 216.659l-.316-.181.128.221zM247.753 219.741c.335.104.56.34.821.599-.194-.354-.425-.691-.678-.982-.136.045-.431.072-.143.383zM246.893 218.546l.06.037c.003-.055-.008-.088-.06-.037zM251.036 222.972l.014-.095-.061.042zM247.915 219.256c-.129-.277-.324-.343-.535-.387.178.141.352.3.518.488.061-.021.095-.044.017-.101zM249.061 221.517c-.04-.174-.104-.353-.177-.533.002.2.058.568.177.533zM246.923 218.737l-.042-.023c-.009.135.017.097.042.023zM246.923 218.737c.146.079.307.101.456.132-.143-.115-.29-.209-.427-.286l-.029.154zM253.735 221.782c-.312.248-1.107-.022-1.264-.774-.646-.26-1.315.957-1.421 1.869.138-.107.253-.219.895.087-.017-.319-.692-1.396-.037-1.252.768.473.41.604.567 1.053.092-.604 1.297.272 1.664-.386l-.718-.351c.07-.09.391-.025.314-.246zM250.188 221.919l-.227-.169c.167.278.208.553.273 1.076.459.205.639.16.754.093 0 0-.238-.245-.459-.51l-.45-.52.109.03zM249.105 220.838c.469-.13 1.055.228 1.121-.384-.57-.569-.657-.164-1.113-.407.957.903-.44-.112.021.75-.233-.137-.401-.302-.56-.457.117.215.218.436.31.644l-.001-.04-.006-.004.006-.003.033-.046.025.015.161-.065c.196.339-.041.119-.161.065l-.059.031v.007l1.078.807c-.146-.247-.394-.493-.855-.913zM246.668 214.394l-.059.092c.093.036.14.041.059-.092zM246.762 214.978c-.103-.041-.287-.004-.428-.278-.048-.292.169-.119.275-.214-.197-.081-.624-.346-.46.247l.101.041c.178.511.143 1.383.047 1.341.212-.352.36-.632.465-1.137zM247.948 217.886l.868.687-.074-.657-.153.165c-.334-.521-.46-.245-.641-.195zM250.973 223.211l-.428.217.909-.005zM252.029 224.178l-.314.246.436.095zM280.146 250.966l-.316.089c.148-.024.245-.055.316-.089zM282.384 251.156l.068-.19c-.111.099-.159.175-.068.19zM280.444 243.825c.237.542.438 1.284.592.864l.072-.45c-.322-.079-.523-.231-.664-.414zM300.98 250.653l.115.146.36-.376-.475.23zM300.424 252.396l-.555-.345c.121.113.299.227.555.345zM267.858 250.833l-.378.427c.566.021.325-.212.378-.427zM263.323 233.291c.224.377.449.612.667.79-.257-.477-.357-1.007-.667-.79zM281.328 246.436c-.197.064-.284.146-.285.244.202-.061.319-.135.285-.244zM264.944 234.738l-.116-.205c-.282-.106-.559-.226-.838-.452.187.355.46.682.954.657zM223.087 249.527l-.1-.055c-.012.058.034.063.1.055zM210.243 244.571c.13-.02.338-.009.535-.005-.094-.034-.255-.04-.535.005zM256.152 228.171c-.247-.176-.068.005 0 0zM256.17 225.921c.08.004.156-.011.229-.082-.088.063-.162.086-.229.082zM268.896 234.135l.021.016-.021-.016zM255.936 227.725c.051.114.121.233.209.35-.025-.067-.088-.176-.209-.35zM255.849 227.92l-.173-.204c-.076.029-.08.086.173.204zM256.486 228.428c-.135-.107-.244-.229-.341-.354l.007.097.334.257zM247.146 248.853l-.062-.042c-.298.175-.167.149.062.042zM289.288 243.173l-.039.005.033.032.006-.037zM290.367 243.318c-.63.308-.831.14-1.085-.108l-.218 1.281 1.303-1.173zM274.764 250.793l.715.421c-.918.603-1.547.354-.886.932.172-1.353 2.856-.018 3.032-1.368l.468.312-.3.035c.9.712.752-.932 1.953-.651.415.135.697.354.399.493l.961-.267c.271.046.189.276-.081.23l1.44-.004-.014.04c.219-.198.706-.493.943-.616.351.221-.193.131-.112.307l.818-.271c.298.374-.386.667-.93.577.642 1.406.684-.293 2.222.613l-.761.117c.423.804 1.027.567 1.832 1.107-.178-.265-1.595-1.33-.708-1.604.234.12.55.192 1.037-.047-.035.481.427.396.997.411l-.094.634c.628-.139.608-.467.994-.728.679.112.775.616.898 1.044 1.078.213-.679-.875.62-.854.882.347 1.541.158 2.665-.099.611.291-.151.377.058.585l.615-.443c.136.027.075.178.044.254.495-.143.106-.631.872-.719.28-.677 1.416 1.198 2.43.508.206.206-.156.377-.116.631 1.327-.378 1.129-.256 2.258-.838l.834.517c-.59-.55.314-1.02 1.11-1.398-.201-.256-.373-.48-.494-.591l1.219-.207c.127.12-.021.324-.249.567l.235-.128c.388.282.119.623-.229.943l-.367-.439c-.341.353-.667.748-.656 1.127.086-.064.239-.111.404-.128-.089.096-.149.184-.123.251.03.071.171-.056.383-.195l.169.736.102-.273.324.137 12.007 5.059-11.139-8.534-.982-.752c-1.271.292-2.543.928-4.277.549.597-.321.405-.757.659-1.322.193.792 1.352.236 2.136.688-.411-.235-.207-.473-.06-.525l-1.707-.03c.222-.457-.173-.48-.481-.832-.082 1.045-1.358.172-2.077.198.094-.329.366-.576 1.071-.203-.521-1.025-1.499.646-2.048-.279.183.068.259.157.396.03-.535.098-1.467-.554-1.108-.722l.181.07c-1.139-.617-3.584-1.593-4.113-.909.034-.104.581-.861.723-.985l-1.647.82-1.657.8c.495-.573.535-2.479 1.676-2.396-.232-.226-.522-.497-1.217-.541.144.183.019 1.178-.27 1.114-.36-1.074-.312-.62-.877-1.673.213.279-.601 1.156-1.033.902.146-.119.461-1.033.676-1.061l-1.607.463c.368-.045.473-.83.368-1.235.014.258-.94-.499-1.283-.55l.348.47c-1.159-.789-1.954.791-3.159.082.258-.126 1.03-1.071.476-1.526-.547.355-2.572 1.786-3.877 1.562l-.05-.403-1.019-.135c.95-.468 3.268-1.258 4.392-1.477-.337-.474.056-.41-.646-.748-.096-.4.596-.214.806-.123l-1.489-1.037c-.253.629-1.536-.078-1.75.443l2.06.343c-.247.628-1.917 1.122-2.994.387-.153-.397.802-.919.889-1.13-.26.121-1.276-.225-1.297-.425l.65-.04c-.491-.575-1.458.188-1.88-.795-.234-.189-.316-1.199-.563-.884.019.906-1.103 3.001-1.68 3.326-.066-.1-.986-1.448-1.081-1.946-.107-.767 1.382-.843 1.291-1.5-.111.147-.461.201-.596.205-.185-.296.405-.414-.212-.703-.454.52-1.138-.783-.575.319-.666-.188-.524-.495-1.2-.885-.024.505-1.404.895-2.072.68.128-.124.125-.396.12-.522l-2.6-2.202c-.004-.203-.395-.716-.012-.808-.219-.005-.49.088-.823-.121-.279-.918.77.425.704-.486-.272.302-1.139-.14-1.736-.27-.218.595.976.864 1.583.971-.484.698-1.797.858-3.12.369-.995-.464-.054-.713-.275-.726-1.521-1.322-2.266.133-3.232-1.377-.186-.843.641-.857.767-1.255.805.381.847 1.085 1.327 1.431l-.421-.644c.329.027.87.271 1.026.588-.073-.361-.729-.893-1.484-1.496-.738-.624-1.58-1.32-2.03-1.979-.322-.04-.801-.206-.771.104l.419.262c.063.628-1.086-.145-.745.416-.697-.197-1.579-.325-2.127-1.122l.279-.576c-.109.15.216.676.537.706-.484-.045-.513-1.564-1.362-1.261l.196.759c-.695-.224-1.757-.311-2.239-1.025-.139.703.188.081.143 1.004.22-.995 1.562 1.488 1.573.24-.104 1.029.549.97.697 2.02.113-.169.038-.478.508.06l.233-.034.026.043-.014-.044-.006-.016c-.069-.177-.103-.347-.071-.468.571-.127 1.394.622 1.845.665.26.335-.283.069-.245.378l.664.076c-.243.382.388 1.276-.542.86l.676.574c.244.53.75 1.054 1.22 1.17.272.332 1.139.247.637.305l1.269.62-.057.098c1.077.849 2.691 1.054 3.517 2.59.444.164.904.329 1.474.855l-.092.405c.566.21 1.268 1.299 1.7 1.099-.029 1.224 2.295 1.731 3.085 2.417l.297-.413c.596.39 1.253.622 2.114.895l.181-.413c.842.057 1.522 1.254 2.594 1.801-.154.108-.401-.074-.536-.273.763 1.582 2.994.827 3.79 2.074.362.008.543.167.69.373l-.082-.017.115.066.286.423c-.069-.16-.143-.301-.223-.391.225.109.585.238.967.305l-.08.5.083.026c.243.324.364-.069.358-.479.202.015.397.008.568-.036-.091.827.981.208.967 1.132.404-.249 1.807.551 2.355-.127-.038.104.037.2-.145.118.326.269.652.539 1.091.479l-.107.627 1.165-.358c.333.57.447.864-.244 1.058 1.491-.093 1.08.205 2.391.017l-.214.338c.369.151 1.165-.068 1.248.33.508 1.052 3.979 1.875 5.844 3.363.024-1.248.792.888 1.215.077.021.304.263.566-.172.653 1.189.175 1.484 1.055 2.515.624.027.307-.378.29-.324.485.109-.022.434-.093.49.104.055.196-.242.156-.459.203.836.278 1.278-.051 1.593-.529l.863-3.452c-.077.197-.133.409-.185.619-.546-.442-.854-.424-1.354.046-.173-.282-.485-.593.261-.603-.407-.084-2.475-.666-2.595-.037-.109-.176-.571-.112-.688-.052-.921-.143-.996-.21-1.911-.253l.24.133c-.445.725-.773.085-1.516.094l.029-.076c-1.621-.744-.751.183-2.344-.638l.043.487c-.255 1.016-1.406-.786-2.408-.476l.323.299c-.557.312-1.347-1.505-1.868-1.672-.107-.099.195-.131.362-.185-1.338-.708-.233.612-1.279.683-.163-.352.317-.841-.375-.954-.327-.3-2.106.949-3.007.231.19.276.378.551-.115.712-.74.04-1.922-1.13-2.642-.357-.089-.077-.119-.148-.119-.213-.576.171-1.85.219-2.214.64-.427-1.72-3.535.644-3.442-.892l-1.734.008.053-.154c-1.102-.148-1.509.201-1.913.551-.251-.115-.059-.249-.034-.328-1.602-.377-1.768-.319-3.148.384l-.123-.501c-.376.276-2.311-.893-3.912-.336.018-.057.053-.151.181-.219-1.796.54-4.231-1.474-4.929.315l-1.185.417c1.516.176-.244.778.374 1.093-.6.092-1.532-.581-.796-.656l.113.093c.29-.935-1.881-.377-1.827-1.017-2.994-.036-5.895-.574-8.694-.663l.312.736-.976-.057c-.254-.174-.335-.577.361-.537-.36-.42-1.174.33-1.196.489-1.359-.316.546-.845.128-.869l-.569.047.127.087c-.465.292-.511.608-1.347.56-.527-.153-.266-.455-.474-.486.002-.052-.067-.077-.319-.025l-1.229-.081.484.585c-.55.276-1.156-.047-.598.615-.819-1.021-4.577-.438-5.083-.76-.77.407-1.522.388-2.454.321.229.124.356.775-.446.683.319-1.335-1.462-.606-2.093-1.581.568.648-2.288.119-1.396 1.042-.669-.12-.03-.502-.532-.826-1.606.478-3.504-.44-5.477-.323-.036.176.286.454-.145.703l-1.013-.91c-.392.075-.391 1.004-1.082.373.096.15.238.378-.024.427-3.828-.933-7.921.385-11.742-1.434.509.368.155.384-.25.374.258.096-.031.434.007.675l-1.598-.749c-.34.645-1.757-.049-1.97.573l.526-.086c-.741.708.858 1.707.698 2.658.827-.806 1.976 1.364 3.322.22.271.21-.257.296-.119.525.347-.393.741-.457 1.456-.234l-.087.097c2.039.009 2.891.46 5.169.852l-.15-.482c.488.087.586.232.812.359.592-.695-1.378-.088-.833-.863.613.994 3.46.121 3.862 1.231l.552-.525.19.302.203-.376c.493.078.731.456.742.707-.119-.033-.344.061-.474.078.632.368 1.816-.065 2.034.055l-.722-.204c2.07-.22 4.582.259 6.585-.305l-.146-.226c1.527-.389 1.211.266 2.883.103l-.062.052c.338-.217.786-.321 1.241-.288-.426.254.783.521.226.802 1.655-.416.821-.335 1.924-1.146l.244.375c.376-.329.41-.506 1.244-.588-.688.307.522.574-.25.981 1.735.841 2.607-.774 3.393.425.816-1.013-1.505-.596-1.052-.808-.371-.342.674-.756 1.22-.644.558.033.93 1.327 2.333 1.329l-.289.063c.521.27 1.033-.339 1.671.096.37-.615.835.048.951-.742l-1.29.164c.732-.195 1.431-1.112 2.626-.645-.097.158-.457.362-.705.476.348.239.68-.145 1.04.101-.116.791-1.566.149-2.356.742.372.34 1.486-.553 1.081.3.581-1.082 1.379.158 2.342-.661l-.07.474c.151-.072.466-.292.742-.275l-.51.607c.776-.514 1.474.481 2.216.206-1.544-.008-.337-.576-.984-.933 1.915-.606 1.075 1.258 3.21 1.062-.289.062-1.078-.302-.623-.515.404.104.938.293 1.181.55 1.41-.066-.208-.494.397-.771.469.59.696-.219 1.318-.39l-.005.482c1.6.348.446-.995 1.886-.587l-.626.654.758-.155-.168.545c.829-.388 1.082-.276 1.882-.104-.179-.344.126-.872.839-.871.478.298-.283.452.727.407-.235.296-.494.669-.922.215l-.282.451c.515.342 1.311.106 1.676.11-.14-.021-.307-.052-.392-.122l1.479-.634c.226.186.039.327-.146.466.297-.046.508-.263.944-.294-.123.39-.108.795-.729.965l1.404-.402c.088.173.7.484.515.625.765.24 1.914-.701 2.924-.352.056-.074.165-.143.384-.189.956.13 1.785.647 2.943.158l.614.73c.896-.122-.835-.923.66-1.124 1.061-.179.364.616.724.827.537-.332 1.48-1.014 2.417-.4-.328.113-.573-.001-.874.038zm10.973.394c-.221.085-.667.366-.8.07.284-.533.451-.256.8-.07zm15.941-1.721c.2-.093.397.061.59.32l4.521 6.117-4.972-4.314-.013-.011.015-.001 7.666-.484-7.222-1.295c-.196-.035-.397-.133-.585-.332zm-42.728-19.506l.033-.004c.267.449.176.286-.033.004zm-.658-.803c-.121-.012-.158.045-.167.124.132-.05.314.087.494.277.023-.144-.024-.294-.327-.401zm-14.227 16.404l.191.129c-.438.131-.314.008-.191-.129zM300.495 252.195c-.049-.087-.054-.179-.056-.27-.094.071-.107.164.056.27zM267.927 250.755l-.033-.007-.036.085.069-.078zM273.227 234.628c.137.163.188.296.204.413.07-.096.044-.228-.204-.413zM253.656 226.265l.568.353c-.251-.197-.264-.353-.33-.518-.064.092-.082.298-.238.165zM251.733 220.203l-.246-.165-.146.172c.283.28.602.357.392-.007zM254.295 224.675c.237-.333-.152-.504-.536-.756l.059.055c-.488.322-.003.513.477.701zM253.673 223.858c-.116-.079-.228-.17-.31-.281-.194.126.086.157.31.281zM257.124 228.554c-.102-.216-.438.313-.428.109-.517.245 1.52.429.428-.109zM254.938 223.449l-.224.475.458-.126zM257.318 226.067l-.449-.57c-.047.07-.147.048-.257.004.322.3.623.69.706.566zM256.612 225.501c-.167-.157-.339-.292-.49-.313.097.077.31.239.49.313zM255.754 223.996l.084.22.345.367zM263.277 230.899l.714.341c.165-.093.056-.302-.219-.416-.221-.012-.493-.129-.495.075zM262.225 228.397c.103.209.046.307.039.51l.395-.48-.434-.03zM264.106 229.626c.164-.093 1.191.254.383-.284-.163.093-.87-.244-.383.284zM273.364 236.697l-.173-.094-.501.886zM283.464 239.541c-.692-.63-.483.463-1.066-.19-.3.113.477.535.188.617.605.025.794.282.878-.427zM282.585 239.968l-.319.006c.17.017.259.009.319-.006zM208.126 243.91l-.573-.243.357.362zM206.949 244.604l-.095-.654-.393.567c.135-.022.397-.065.488.087zM287.254 252.607l.058-.152c-.076-.175-.212-.197-.483-.243l.425.395zM279.37 251.546l.135.023-.219-.604zM272.663 251.963l.869-.044c-.599.08-.91-.69-.869.044z"/></g></svg>