<svg xmlns="http://www.w3.org/2000/svg" viewBox="253.6 611.3 595.3 137.2" enable-background="new 253.6 611.3 595.3 137.2"><path fill="#1A1A1A" d="M346.6 668.6c-3.7-9.3-7.7-16.4-11.9-21.2-8.2-9.6-19.1-14.4-32.6-14.4-13.9 0-25.3 5.2-34.6 15.3-9.3 10.2-13.9 23-13.9 38.5 0 14.4 4.1 27.3 12.3 38.5 9.1 12.3 20.5 18.3 34.7 18.3 9.8 0 18-1.2 24.6-3.7 9.3-3.4 13.9-9.1 13.9-17.3 0-2.8-.2-4.8-.5-6.2-.4-1.4-1.4-2.8-3.2-4.5-.9-1.1-2.5-1.6-4.8-1.6-1.6 0-3.2.2-5 .7-1.8.5-4.3 1.8-7.5 4.3-6.4 4.5-10.3 6.9-11.9 7.5-1.6.5-3.2.9-5.2.9-4.8 0-8.5-2.1-11.4-6.6-2.1-3.4-3.2-7.7-3.2-12.5 0-1.8.7-3.6 2-5.7s2.8-3.6 4.5-4.3c1.8-.7 5.2-1.2 10.5-1.2.5 0 6.1.4 16.6 1.1 2.7.2 5.9.4 9.6.4h.2c4.8 0 8.5-.4 11.4-1.2s4.6-2.3 5.2-4.6c1.4-4.8 2.1-8.4 2.1-10.9.2-3.2-.5-6.4-1.9-9.6zm-30.1 3.4c-.9 3.2-3 5.5-6.1 6.9-2.8 1.2-6.1 2-9.8 2-3.7 0-7.1-.7-10-2.3-3.2-1.6-5.2-3.6-5.5-5.5-.4-1.6-.5-3-.5-4.3 0-7.1 3.7-12.3 11-15.1 2-.7 4.1-1.1 6.6-1.1 5.3 0 9.4 2 12.5 5.9 1.8 2.8 2.7 5.7 2.7 8.4 0 1.5-.4 3.3-.9 5.1zM367.6 632.6c2.5 0 5.5.5 8.9 1.4 2.1.5 6.1 3.6 12.8 14.6 3 4.6 5.9 6.9 9.1 6.9 4.3 0 9.6-3.6 15.9-10.9 8.7-9.8 10.9-11.2 11.2-11.4 2.8-.7 5.9-.9 8.9-.9 1.8 0 3.2.2 4.3.5.9.4 1.8 1.1 2.8 2.1.9 1.1 1.4 2.7 1.4 4.8 0 3.7-1.2 7.3-3.9 10.5-6.1 7.5-10.9 13.9-14.1 19.1-4.5 6.8-6.6 11.8-6.6 15v5.2c0 2.3.5 4.6 1.8 6.9 2.3 4.5 5.5 9.8 10 15.7 4.3 5.9 8.7 11 12.8 15.1.7.7 2 2.3 3.6 5.9 1.2 2.8 2 5.3 2 7.3 0 2.1-.7 3.9-2 5.3-1.6 1.6-3.7 2.5-6.2 2.5-1.6 0-3-.2-4.1-.5-1.2-.4-3.7-1.2-6.9-2.5-4.1-2-7.5-5-10-8.5-1.2-1.8-3.6-5.3-6.6-10.9-1.2-2.1-2.7-3.7-4.1-5-1.8-1.4-3.7-2.3-6.1-2.3-3.9 0-7.5 1.6-10.5 5-1.6 1.8-3.6 4.8-5.7 9.3-2.5 5-3.7 6.9-4.6 7.8-2 2.3-4.5 3.7-7.5 4.5-3.4.9-6.1 1.4-7.7 1.8-1.6.4-3 .5-4.3.5-2.3 0-4.3-.7-5.7-2.1-1.4-1.4-2.1-3.2-2.1-5.7 0-2.3.4-4.5 1.2-6.6.9-2.1 2-3.9 3.2-5.2l5.9-7.1 4.8-5.7c5.5-6.8 9.1-12.1 11-16.4 1.1-2.8 1.6-5.5 1.6-8.4 0-2-.2-3.6-.4-4.6s-.5-2-1.1-2.8c-.4-2.3-2.5-6.9-13.2-20.8-10.3-13.4-12.5-19.4-12.5-22.3 0-2.7 1.2-4.5 4.1-5.3 3.6-1.2 6.3-1.8 8.6-1.8M498.2 634.2c11.9 0 23.2 4.5 33.3 13.4 11.8 10.3 17.8 23.7 17.8 39.5 0 16.6-5.2 30.1-15.5 40.3-9.8 9.6-21.9 14.4-36.5 14.4-12.6 0-23.9-5.3-33.7-15.7-10.2-10.9-15.3-24.4-15.3-39.9 0-9.3 4.5-19.9 13.2-31.3 10.5-13.5 22.8-20.7 36.7-20.7m3 87.1c8.5 0 14.6-3.2 18.3-9.3 3.6-6.1 5.2-15.1 5.2-27.8 0-8.4-1.8-15.5-5.3-21.2-3.7-6.1-8.9-9.1-15.5-9.1-8.2 0-15.5 3.6-21.4 10.9-5.2 6.2-7.8 12.8-7.8 19.4 0 9.8 2.1 18.5 6.6 25.8 4.7 7.6 11.3 11.3 19.9 11.3M604.1 637.6c13.2 0 22.6 1.6 28.3 4.6 4.8 2.5 8 6.4 9.8 11.8l1.6 3.7.2.5c.4 1.1.5 2 .5 2.8 0 1.6-.7 2.7-2.1 3.4-1.2.7-4.1 1.4-10.7 1.4-2.5 0-4.8-.7-6.9-2.1-6.6-4.3-11.6-6.4-15.5-6.4h-3c-5.7.5-10.7 4.8-14.6 12.5-3.7 7.3-5.7 15.3-5.7 23.9 0 8 1.1 14.8 3 20.3 3 8.4 8.2 12.5 15.5 12.5 6.9 0 12.3-2.3 16-6.8l.2-.2.2-.2c2.7-4.8 5.3-9.8 8-14.8.4 0 .7-.2 1.6-.2 2.7 0 6.2.9 10.5 2.7 4.3 1.8 7.3 3.4 8.7 4.6.9.7 1.2 2 1.2 3.7 0 5.2-3.4 10.7-10.3 16-8.4 6.6-19.2 10.7-32.4 12.1-1.4.2-3.4.2-5.9.2-15.1 0-25.8-6.8-33-20.8-5.2-10.3-7.8-22.6-7.8-36.5 0-14.2 5.7-26.4 16.7-36.3 9.4-8.1 17.9-12.4 25.9-12.4M713.3 636.4c9.4 0 16.7 2.8 21.6 8.4 6.1 7.1 9.1 20.7 9.1 40.1v27.1c0 4.5.4 7.7 1.4 10.3 2.8 7.8 3 9.4 3 9.6 0 1.4-.2 3.4-.7 6.1 0 0-.4.9-3.2 2.5-2.3 1.2-4.8 2-7.3 2-2.1 0-5.2-1.1-8.9-3.2-2.5-1.2-4.5-2-6.2-2l-12.8.5c-.4 0-.7 0-9.4 2.5-3 .9-6.6 1.4-10.5 1.4-8 0-14.4-2.7-19.2-8-5-5.3-7.3-12.5-7.3-21.4 0-12.3 5.2-21.2 15.7-27.1 6.6-3.7 17.6-6.9 33.1-10 3.2-.7 4.6-3.9 4.6-9.3 0-3-.5-6.1-1.6-9.1-1.6-4.5-4.6-5.5-6.9-5.5-2.8 0-7.5 1.8-14.6 5.7-8.2 4.5-11.2 5.2-12.3 5.2-.5 0-.7-.2-.9-.2l-.2-.2-.2-.2c-2.1-1.2-4.1-2.7-5.9-4.1-1.4-1.2-2.3-2.7-2.7-4.8 0-.5.4-3.6 14.2-9.8 10.3-4.2 19.8-6.5 28.1-6.5m-10.7 88c2.3 0 4.5-.5 6.4-1.8 2.5-1.6 4.6-4.1 6.2-7.3 1.2-2.5 2-5.2 2-8.4 0-5.9-2.5-10.2-7.1-13-1.4-.9-3-1.2-5-1.2-4.1 0-7.8 2-11.4 5.7-3.6 3.7-5.3 7.8-5.3 12.1 0 1.8.2 3.2.5 3.9 2.1 5.9 5.9 9.1 11.2 9.8.9 0 1.8.2 2.5.2M834.3 611.3c1.6 0 3.2.5 4.8 1.8 2.5 2.5 4.5 4.5 5.9 5.5.2.4 1.6 2.5 2.7 16.9.9 11 1.2 24.6 1.2 40.4 0 18-.5 32.8-1.6 43.8-.2.9-.4 2.1-.4 3.9 0 2.1.4 4.6.9 7.5.9 3.7.9 4.5.9 4.6 0 1.4-.5 2.5-2 3.4-.2 0-.9.2-2.5.4s-2.7.2-3.2.2c-3 0-6.1 0-9.4.2-3.4 0-7.3.5-11.2 1.2-3.9.7-8.2 1.4-12.6 1.8-4.5.5-8.5.7-12.5.7-11.4 0-20.1-4.8-27.1-14.8-6.9-10-10.5-21.7-10.3-34.9 0-11.9 1.6-21.2 4.8-27.6 2.5-4.8 6.9-9.8 13.4-15 3.4-2.7 6.2-4.8 8.5-6.1 3.2-1.8 6.2-2.7 8.9-2.7h1.6c2.1 0 4.5.5 6.6 1.4 3.2 1.2 6.2 2 9.3 2 3.9 0 7.1-1.6 9.3-5 2.1-3 3.2-6.4 3.2-9.8 0-5.3.9-10 2.5-13.5 2.1-4.6 3.7-5.3 4.1-5.3 2.6-1 3.6-1 4.2-1m-30.3 114c2.1 0 4.3-.4 6.2-1.1 6.2-1.8 10.3-6.2 12.1-13.5 1.1-4.3 1.6-10.7 1.6-19.6 0-7.3-1.8-13.9-5.2-19.6-4.1-6.9-9.3-10.3-15.7-10.3-5.5 0-10.7 3.4-15.3 10-4.5 6.4-6.8 13.5-6.8 21.4 0 9.6 1.1 16.6 3 21.4 2.1 5.2 6.6 8.5 13.4 10.3 2.2.6 4.4 1 6.7 1"/></svg>