<svg xmlns="http://www.w3.org/2000/svg" viewBox="0 0 592.7 250.5" enable-background="new 0 0 592.7 250.5"><path fill="#AFBEBF" d="M587.3 77.4v-4.6c0-.6-.4-1-1-1s-1 .4-1 1v4.6c-.8 0-1.5.7-1.5 1.5v10.1c0 .7.4 1.2 1 1.4v33.9c0 11.5-9.3 20.8-20.8 20.8s-20.8-9.3-20.8-20.8v-43.1c0-13.1-10.7-23.8-23.8-23.8-13.1 0-23.8 10.7-23.8 23.8v75.3c0 11.5-9.3 20.8-20.8 20.8s-20.8-9.3-20.8-20.8v-7.7h-3v7.7c0 13.1 10.7 23.8 23.8 23.8s23.8-10.7 23.8-23.8v-75.3c0-11.5 9.3-20.8 20.8-20.8s20.8 9.3 20.8 20.8v43.2c0 13.1 10.7 23.8 23.8 23.8s23.8-10.7 23.8-23.8v-33.9c.6-.2 1-.8 1-1.4v-10.2c0-.8-.7-1.5-1.5-1.5z"/><path fill="#E4EDED" d="M313.5 52.5c-15.7-1-29.3 10.9-30.4 26.7 0 .6-.1 1.2-.1 1.9l-12.8-2.4c2.7 8 11.9 27.8 36.6 30.7.3 0 .6.1 1 .1.6.1 1.3.1 1.9.1h.6c16.8.3 28.8-11.1 29.9-26.7 1-15.8-10.9-29.4-26.7-30.4z"/><path fill="#05AF8F" d="M410.3 46.1c-32 0-58 26-58 58 0 5.4.8 10.8 2.2 16h-127.7c-3.1 0-5.7 2.5-5.7 5.7v105.5h179.3v-105.6c0-3.1-2.5-5.6-5.6-5.6h-33.9c-1.7-5.1-2.5-10.5-2.5-16 0-28.7 23.3-52 52-52s52 23.3 52 52c0 6.5-1.2 12.9-3.5 18.9-.6 1.5.2 3.3 1.7 3.9.4.1.7.2 1.1.2 1.2 0 2.3-.7 2.8-1.9 2.6-6.7 3.9-13.8 3.9-21.1-.1-32-26.1-58-58.1-58z"/><path fill="#0C7561" d="M336.5 44.5l61.6-38.1c1.1-.7 2.4.6 1.7 1.7-5.6 9.2-22.2 31.5-58 47.5"/><path fill="#E4EDED" d="M229.9 128.8h161.7v103.7h-161.7z"/><path fill="#0C7561" d="M318 125.5h-14.2c-.6 0-1-.4-1-1s.4-1 1-1h14.2c.6 0 1 .4 1 1s-.5 1-1 1zm-17.1 0c-.3 0-.5-.1-.7-.3-.2-.2-.3-.4-.3-.7 0-.3.1-.5.3-.7.4-.4 1-.4 1.4 0 .2.2.3.4.3.7 0 .3-.1.5-.3.7-.2.2-.5.3-.7.3z"/><path fill="#C8D4D6" d="M329.2 211h-79.9c-1.1 0-2-.9-2-2v-56.6c0-1.1.9-2 2-2h79.9c1.1 0 2 .9 2 2v56.6c0 1.1-.9 2-2 2z"/><path fill="#AFBEBF" d="M247.4 155.9v-4c0-1 .8-1.8 1.8-1.8h80.2c1 0 1.8.8 1.8 1.8v4"/><circle fill="#E4EDED" cx="250" cy="153" r=".7"/><circle fill="#E4EDED" cx="252.1" cy="153" r=".7"/><circle fill="#E4EDED" cx="254.3" cy="153" r=".7"/><path fill="#E4EDED" d="M306.1 154.1h-47.4c-.6 0-1.1-.5-1.1-1.1 0-.6.5-1.1 1.1-1.1h47.4c.6 0 1.1.5 1.1 1.1-.1.6-.6 1.1-1.1 1.1zm20.7 0h-17.2c-.6 0-1.1-.5-1.1-1.1 0-.6.5-1.1 1.1-1.1h17.2c.6 0 1.1.5 1.1 1.1 0 .6-.5 1.1-1.1 1.1z"/><path fill="#C8D4D6" d="M371.3 204.3h-34.9c-1 0-1.8-.8-1.8-1.8v-38.5c0-1 .8-1.8 1.8-1.8h34.9c1 0 1.8.8 1.8 1.8v38.4c0 1.1-.8 1.9-1.8 1.9z"/><path fill="#AFBEBF" d="M334.6 167.7v-4c0-1 .8-1.8 1.8-1.8h34.9c1 0 1.8.8 1.8 1.8v4"/><circle fill="#E4EDED" cx="337.1" cy="164.8" r=".7"/><circle fill="#E4EDED" cx="339.3" cy="164.8" r=".7"/><circle fill="#E4EDED" cx="341.4" cy="164.8" r=".7"/><path fill="#E4EDED" d="M359.9 165.8h-14.1c-.6 0-1.1-.5-1.1-1.1 0-.6.5-1.1 1.1-1.1h14.1c.6 0 1.1.5 1.1 1.1 0 .7-.5 1.1-1.1 1.1zm8.8 0h-5.1c-.6 0-1.1-.5-1.1-1.1 0-.6.5-1.1 1.1-1.1h5.1c.6 0 1.1.5 1.1 1.1-.1.7-.5 1.1-1.1 1.1z"/><path fill="#20CEAC" d="M404.4 241.6h-187.3c-3.2 0-5.9-2.6-5.9-5.9v-3.8c0-.7.6-1.3 1.3-1.3h196.5c.7 0 1.3.6 1.3 1.3v3.8c0 3.2-2.7 5.9-5.9 5.9z"/><path fill="#0C7561" d="M327.3 236.8h-33.2c-2.6 0-4.7-2.1-4.7-4.7v-1.5s0-.1.1-.1h42.4s.1 0 .1.1v1.4c0 2.7-2.1 4.8-4.7 4.8z"/><path fill="#C8D4D6" d="M190.1 164.4c0 1.4-1.1 2.5-2.5 2.5s-2.5-1.1-2.5-2.5v-26.2c0-1.4 1.1-2.5 2.5-2.5s2.5 1.1 2.5 2.5v26.2z"/><path fill="#E4EDED" d="M186.8 81.7c-9.6.3-17 8.5-17 18.1v41.4c0 1.6 1.3 2.8 2.8 2.8h23.8c.2 0 .4.2.4.4v12.1c0 .9.7 1.8 1.6 1.8 1 .1 1.9-.7 1.9-1.7v-12.2c0-.3.2-.5.5-.5h.4c.3 0 .5.2.5.5v5.6c0 .9.7 1.8 1.6 1.8 1 .1 1.9-.7 1.9-1.7v-50.8c-.1-9.9-8.4-18-18.4-17.6z"/><path fill="#C8D4D6" d="M184 132.9c0 1.9-1.6 3.5-3.5 3.5s-3.5-1.6-3.5-3.5v-31.9c0-1.9 1.6-3.5 3.5-3.5s3.5 1.6 3.5 3.5v31.9zm14.1 0c0 1.9-1.6 3.5-3.5 3.5s-3.5-1.6-3.5-3.5v-31.9c0-1.9 1.6-3.5 3.5-3.5s3.5 1.6 3.5 3.5v31.9z"/><path fill="#E4EDED" d="M19.3 169.6c-.8 0-1.5-.7-1.5-1.5v-39.4c0-.8.7-1.5 1.5-1.5s1.5.7 1.5 1.5v39.4c0 .8-.7 1.5-1.5 1.5zm5.6-33.8c-.8 0-1.5-.7-1.5-1.5s.7-1.5 1.5-1.5c1.1 0 2.1-.4 2.9-1.2.8-.8 1.2-1.8 1.2-2.9 0-2.1-1.9-4-4-4-1.1 0-2.1.4-2.9 1.2-.8.8-1.2 1.8-1.2 2.9 0 .8-.7 1.5-1.5 1.5s-1.5-.7-1.5-1.5c0-1.9.7-3.7 2.1-5 1.4-1.3 3.2-2.1 5.1-2 3.8.1 6.9 3.2 7 7 0 1.9-.7 3.7-2 5.1s-3.3 1.9-5.2 1.9zm-11.3 37.1c-.8 0-1.5-.7-1.5-1.5v-28.4c0-.8.7-1.5 1.5-1.5s1.5.7 1.5 1.5v28.4c0 .9-.7 1.5-1.5 1.5zm-4.1-24.4c-1.5 0-2.9-.6-3.9-1.6-1-1.1-1.6-2.5-1.6-4 0-3 2.5-5.4 5.4-5.5 1.5 0 2.9.5 4 1.6 1.1 1 1.6 2.4 1.6 3.9 0 .8-.7 1.5-1.5 1.5s-1.5-.7-1.5-1.5c0-.7-.3-1.3-.8-1.8s-1.2-.7-1.8-.7c-1.3 0-2.5 1.2-2.5 2.5 0 .7.2 1.3.7 1.8.5.5 1.1.8 1.8.8.8 0 1.5.7 1.5 1.5s-.5 1.5-1.4 1.5z"/><path fill="#05AF8F" d="M450.8 150.2h3.1c.7 0 1.3-.6 1.3-1.3v-6.3c0-.7-.6-1.3-1.3-1.3h-3.1c-.7 0-1.3.6-1.3 1.3v6.3c-.1.7.5 1.3 1.3 1.3z"/><path fill="#0C7561" d="M363.1 138c-1.9 0-3.5-1.6-3.5-3.5v-18.3c0-1.9 1.6-3.5 3.5-3.5s3.5 1.6 3.5 3.5v18.3c0 1.9-1.5 3.5-3.5 3.5z"/><path fill="#20CEAC" d="M371 145.3h-3c-2.2 0-4.1-1.8-4.1-4.1v-31.9c0-2.2 1.8-4.1 4.1-4.1h3c2.2 0 4.1 1.8 4.1 4.1v31.9c-.1 2.3-1.9 4.1-4.1 4.1z"/><path fill="#0C7561" d="M379.3 152.1c-3.9 0-7-3.1-7-7v-39.7c0-3.9 3.1-7 7-7s7 3.1 7 7v39.7c0 3.9-3.2 7-7 7zm78.5-39.5c1.9 0 3.5 1.6 3.5 3.5v18.3c0 1.9-1.6 3.5-3.5 3.5s-3.5-1.6-3.5-3.5v-18.3c0-1.9 1.6-3.5 3.5-3.5z"/><path fill="#20CEAC" d="M449.9 105.3h3c2.2 0 4.1 1.8 4.1 4.1v31.9c0 2.2-1.8 4.1-4.1 4.1h-3c-2.2 0-4.1-1.8-4.1-4.1v-31.9c.1-2.3 1.9-4.1 4.1-4.1z"/><path fill="#0C7561" d="M441.6 98.4c3.9 0 7 3.1 7 7v39.7c0 3.9-3.1 7-7 7s-7-3.1-7-7v-39.7c0-3.8 3.2-7 7-7z"/><path fill="#E4EDED" d="M178.1 234.5c0-21.5-9.1-40.9-23.6-54.6v-28.3c0-15.7-7.1-29.8-18.2-39.3.5-.9.3-2-.5-2.7-9.3-7.3-20.9-11.3-32.8-11.3-11.9 0-23.5 4-32.8 11.3-.8.6-1 1.8-.5 2.7-11.1 9.5-18.2 23.6-18.2 39.3v28.3c-3.7 3.5-7.1 7.4-10 11.5l-18.2-18.2c-1-1-2.5-1-3.4 0l-4.3 4.3c-.7.7-.9 1.8-.5 2.7 2.5 5.5 11 24.2 15.6 34.4-1.7 6.3-2.7 13-2.7 19.9h150.1zm-122.8-82.9c0-14.5 6.5-27.5 16.8-36.3.7.6 1.8.7 2.6.1 8-6.3 18-9.7 28.2-9.7s20.2 3.4 28.2 9.7c.8.6 1.8.6 2.6-.1 10.3 8.7 16.8 21.7 16.8 36.3v24.7c-13-10.6-29.5-17-47.6-17s-34.6 6.4-47.6 17v-24.7z"/><path fill="#C8D4D6" d="M59.2 173.4c12.3-8.8 27.4-14 43.8-14 16.3 0 31.4 5.2 43.8 14"/><path fill="#C8D4D6" d="M173 242h-141.2c-2.2 0-4-1.8-4-4v-5.3h150.3v4.2c0 2.8-2.3 5.1-5.1 5.1z"/><circle fill="#C8D4D6" cx="102.9" cy="154.4" r="7.9"/><path fill="#0C7561" d="M141.4 242h46.4c1.3 0 2.4-1.1 2.4-2.4v-4c0-1.3-1.1-2.4-2.4-2.4h-46.4c-1.3 0-2.4 1.1-2.4 2.4v4c0 1.3 1.1 2.4 2.4 2.4z"/><path fill="#05AF8F" d="M191.7 178.9h-54.2c-1.4 0-2.5 1.1-2.5 2.5v6.8c-1.4-.6-2.9-.9-4.4-1-3.5-.1-6.8 1.2-9.4 3.7-2.6 2.5-4 5.9-4.2 9.6-.1 2 .1 7.3 3.6 12.5 2.8 4.1 7.9 9.6 14.3 13.7v9.7c0 1.4 1.1 2.5 2.5 2.5h54.2c1.4 0 2.5-1.1 2.5-2.5v-55c.1-1.4-1-2.5-2.4-2.5zm-65.8 30.1c-2.4-3.6-2.5-7.3-2.4-8.3.1-1.9.8-3.7 2.2-5s3-2 4.8-1.9c1.8.1 3.4.9 4.6 2.2v22.5c-4.4-3.3-7.6-7.1-9.2-9.5z"/><path fill="#E9F1F2" d="M166 223.9h13.6c1.3 0 2.3-1.1 2.3-2.4v-17.8c0-.7-.3-1.3-.7-1.8l-1.8-1.8c-.4-.4-1-.7-1.6-.7h-11.8c-1.3 0-2.3 1.1-2.3 2.4v19.6c.1 1.4 1.1 2.5 2.3 2.5z"/><path fill="#C8D4D6" d="M181.9 219h-18.1v5.1c0 .8.6 1.5 1.4 1.5h15.3c.8 0 1.4-.7 1.4-1.5v-5.1zm-9.1-16.2c.6 0 1-.5 1-1.1v-24.2c0-.6-.5-1.1-1-1.1-.6 0-1 .5-1 1.1v24.2c0 .6.4 1.1 1 1.1z"/><path fill="#E4EDED" d="M557.7 241.8h-45.3c-1.7 0-3.1-1.4-3.1-3.1v-122.2h48.4v125.3z"/><path fill="#F2F9F8" d="M555 116.5h-45.7l6.8-17c.4-1 1.3-1.6 2.4-1.6h46.7l-10.2 18.6z"/><path fill="#C8D4D6" d="M573 241.8h-18v-125.3h21.2v122.1c-.1 1.8-1.5 3.2-3.2 3.2z"/><path fill="#AFBEBF" d="M565.1 97.9l11 18.6h-21.1z"/><path fill="#E4EDED" d="M563.2 89.9h-44.6c-1.1 0-1.9.9-1.9 1.9v4.2c0 1.1.9 1.9 1.9 1.9h46.5v-6.1c0-1-.8-1.9-1.9-1.9z"/><path d="M517.5 203.6h30.2c1.5 0 2.6 1.1 2.6 2.6s-1.1 2.6-2.6 2.6h-21.4l13.4 7.6c.9.5 1.4 1.3 1.4 2.4 0 1.1-.4 1.9-1.4 2.4l-13.5 7.6h21.5c1.5 0 2.6 1.2 2.6 2.6 0 1.4-1.1 2.6-2.6 2.6h-30.2c-1.6 0-2.7-1.1-2.7-2.7 0-1.2.5-1.9 1.7-2.6l17.2-9.9-17.2-9.9c-1.1-.7-1.7-1.4-1.7-2.6 0-1.7 1-2.7 2.7-2.7zm-.2-16.7h30.4c1.5 0 2.6 1.2 2.6 2.6 0 1.4-1 2.6-2.6 2.6h-30.4c-1.5 0-2.5-1.2-2.5-2.6 0-1.4 1-2.6 2.5-2.6zm.1-16.6h27.4v-12.8c0-1.5 1.1-2.5 2.5-2.5s2.5 1 2.5 2.5v14.9c0 1.7-1.4 3.1-3 3.1h-29.3c-1.5 0-2.6-1.1-2.6-2.6-.1-1.4 1-2.6 2.5-2.6zm-.1-45.9c.7 0 1.3.3 1.9.8l12.8 11.8 13.9-12.3c.8-.7 1.3-.9 2-.9 1.4 0 2.5 1.2 2.5 2.6 0 .9-.5 1.6-1.1 2.1l-14.4 12.6h13c1.5 0 2.6 1.2 2.6 2.6 0 1.4-1 2.6-2.6 2.6h-30.4c-1.5 0-2.5-1.2-2.5-2.6 0-1.4 1-2.6 2.5-2.6h12l-13.4-11.9c-.7-.6-1.1-1.2-1.1-2.2-.2-1.5.9-2.6 2.3-2.6z" opacity=".54" fill="#C8D4D6"/><path fill="#C8D4D6" d="M458.5 220.8c-.9-.2-1.6-.7-2.1-1.5-2.3-2.6-27.4-28.1-43.9-44.8-1.4-1.4-1.4-3.6 0-5s3.6-1.4 5 0c0 0 11.1 11.2 22.2 22.5 6.4 6.6 11.6 11.8 15.3 15.6 8.3 8.5 8.3 8.5 7.8 10.5-.4 1.6-1.8 2.7-3.4 2.7-.3.1-.6.1-.9 0zm-2.6-2.8c-.1-.5-.1-1 0-1.5-.1.6-.1 1.1 0 1.5z"/><path fill="#05AF8F" d="M427.9 195.2c.9 19 12.4 35.2 28.7 42.8.3.1.7.2 1 .2h40.5c.3 0 .7-.1 1-.2 16.3-7.7 27.8-23.9 28.7-42.8.1-1.3-1-2.4-2.3-2.4h-95.2c-1.4 0-2.5 1.1-2.4 2.4z"/><path fill="#0C7561" d="M457.3 241.8h41c1 0 1.8-.8 1.8-1.8s-.8-1.8-1.8-1.8h-41c-1 0-1.8.8-1.8 1.8s.8 1.8 1.8 1.8z"/><path fill="#05AF8F" d="M395.2 250.5m-86.8-134.7"/><path fill="#AFBEBF" d="M335.3 69.3s12.8-25.8-10.7-47.4c-.2-.1-12.7 19.6-2 39.4"/><path fill="#C8D4D6" d="M311.7 73.7l-7 3.3"/><path fill="#05AF8F" d="M247.3 63.3"/><path fill="#05AF8F" d="M339.1 63.2v-12.1c0-13.2-14.2-21.5-25.7-15.1l-40.5 22.6c-2.2 1.2-1.3 4.5 1.2 4.5h65z"/><path fill="#20CEAC" d="M290.8 63.2s43.1-22.5 50.3 0h-50.3z"/><path fill="#fff" d="M367 25.1v2.4c0 .4.5.5.7.2l3.7-5.2.1-.2-.1-2.9c0-.2-.2-.4-.5-.3l-4.2 1.2c-.2 0-.3.2-.3.4l.6 4.4zm-6.5 20.9l-2.9-2c-.2-.2-.1-.5.2-.5l8.1-.2c.3 0 .4.4.1.6l-5.2 2.2c-.1 0-.3 0-.3-.1zm9.2-5.2l-3-.9c-.3-.1-.3-.4 0-.5l6.9-2.4c.3-.1.5.3.3.5l-3.8 3.3c-.2 0-.3.1-.4 0z"/><path fill="#C8D4D6" d="M341.5 21.7c-.2-.1-21 17.6-19.9 41.4l.2.2h-35.8c-1.6 2.7-3.6 5.2-6.2 6.2-1.5.5-2.9.8-4.1 1h-4c-1.8 0-3.2 1.6-2.9 3.4.3 1.5.7 3 1.4 4.3 3.2 7.9 13.7 27 38.6 28.2h3.6c16.8-.8 28.1-12.9 28.1-28.5 0-2.7-.4-5.3-1.1-7.8 5.4-8.2 14-25.9 2.1-48.4z"/><path fill="#AFBEBF" d="M269.7 77c-.4-1-.7-2.1-.8-3.1-.3-1.8 1.1-3.4 2.9-3.4h3.7c0 3.3-2.6 6.1-5.8 6.5z"/></svg>