<svg xmlns="http://www.w3.org/2000/svg" viewBox="0 0 353.8 402" enable-background="new 0 0 353.8 402"><path fill="#19191A" d="M264.8 44.5h.1c.9.3 1.9-.1 2.4-.8.3-.3 6.4-8.4 22.1-5.9 3.6.6 7.5-.3 11.2-2.3 4.4-2.5 7.6-6.5 8.9-11.4 1.4-4.9.7-10-1.7-14.4-2.2-4-5.9-7-10.2-8.6-5.2-1.8-10.8-1.3-15.5 1.3-.8.4-20.4 10-18.9 40.1.1.9.7 1.7 1.6 2zM290.3 46c-.4-.1-9.4-2.2-18.1 5.2-.6.5-.9 1.3-.8 2 .1.8.6 1.4 1.3 1.7.7.3 1.4.6 2 1 4.3 2.6 6.4 6.8 6.4 6.8.1.2.2.4.4.6.5.5 1.1 1 1.7 1.4 1.1.7 2.4 1.1 3.8 1.3 2.7.4 5.4-.3 7.5-1.9 2.2-1.6 3.6-4 4-6.7.6-4.1-1.3-8.1-4.8-10.2-.9-.6-2.2-1-3.4-1.2zM353.8 336.1c0-11.2-26.3-21.1-67.4-27.6v-161.79999999999998c0-.2-.1-.4-.1-.5 0-.2-.1-.3-.1-.4l-.2-.6c0-.1 0-.1-.1-.2l-.1-.2-.3-.5-.3-.4c-.1-.1-.2-.3-.4-.4-.1-.1-.2-.2-.4-.3l-.4-.3-.4-.3c-.2-.1-.3-.2-.5-.2l-.4-.2-.5-.1c-.2 0-.4-.1-.5-.1l-40.2-4.3v-33.1l24.2-30.6c2.5-2.5 3.4-6.2 2.5-10.3-.7-3.3-2.5-6.7-5.1-9.7-3.9-4.4-8.9-7-13.3-7-2.5 0-4.8.8-6.6 2.4l-.7.7-33.5 42.8c-.8 1-1.2 2.2-1.2 3.4v37.7l-73.5-9.5c-1.1-.1-2.2 0-3.2.5l-48.9 21.7c-1.9.9-3 2.8-3 4.9v155.1c-47.7 6.4-79.2 17.1-79.2 29.4 0 12.2 31.3 22.9 78.7 29.2h-.1c14.4 2.7 1.3 7.6 1.3 7.6h.1c-5.4 2.5-8.5 5.3-8.5 8.2 0 11.5 47.1 20.9 105.3 20.9 58.2 0 105.3-9.4 105.3-20.9 0-2.9-3-5.7-8.5-8.2h-.1c-.5-.2-1-.5-1.6-.7-3-1.5-8.1-4.8 3-6.9 47.6-6.3 78.9-17.1 78.9-29.2zm-103.6-278c1 .2 2.8 1.1 4.7 3.2 2.1 2.4 2.7 4.5 2.7 5.3l-.2.3-2 2.5-9.4-5.9 4.2-5.4zm-13.8 17.6l9.3 5.9-8.4 10.6-9.2-5.8 8.3-10.7zm-17.6 22.5l.1-.2 11.5 7.3v4l-11.6 6.5v-17.6zm0 33.4l11.6-6.5v11.7l-11.6 6.5v-11.7zm40 20.8l-28.5 14.4c-1.2.5-3.6 1-7.7.6l-99.3-13.2c-3-.4-5.8 1.7-6.1 4.7-.4 3 1.7 5.8 4.7 6.2l96.3 12.8s5.1 0 5.1 6.9v157.4-.1c0 4.5-3.3 4.7-4.7 4.6l-124.6-16.7c-3.1-.4-3.7-2.9-3.8-3.8v-167.9c.1-2.8 1.9-4.1 2.5-4.5l39.8-17.1c.8-.3 2.7-.8 5.7-.6l69.6 9v5.8c0 .7.2 1.4.4 2.1 1.3 5.7 7.9 9.8 16.4 9.8 9.5 0 16.7-5.1 16.7-11.9v-2.2l16.2 1.7h-.1s5 .5 1.4 2z"/><path fill-rule="evenodd" clip-rule="evenodd" fill="#19191A" d="M161.3 197.2c12-.5 29.6 5.1 30.9 15.8 1 8.1-7.4 22.4-17.9 21.5-4.4-.4-6.4-3.2-7-6.5-.7-4.2 1.5-8.4-1.7-10.8-6.2-4.5-16 3.3-18.7 5.7-3.6 3.3-9.2 9.5-7 16.5 1.5 4.8 6.8 5.9 12.2 7.9 4.9 1.8 13.1 4 16.4 5.8 11 5.9 21.7 14.7 19.7 30.4-1.9 15.6-23.6 33.9-45.3 27.6-9.4-2.7-19.9-11.7-21.3-22.9-.9-7 1.2-14.8 8.7-15.4 15.9-1.4 9.9 17.9 22.2 18.6 9.8.6 19.5-12.5 15.2-22.6-2.7-6.4-12-8.7-21.3-11.1-14.3-3.8-30-9.5-28.3-26.5 1.5-15.1 20.2-30.1 37.9-33.7 1.7-.3 3.2-.2 5.3-.3z"/></svg>